<?xml version="1.0" encoding="utf-8"?>
<!-- Generator: Adobe Illustrator 24.0.2, SVG Export Plug-In . SVG Version: 6.00 Build 0)  -->
<svg version="1.1" id="Capa_1" xmlns="http://www.w3.org/2000/svg" xmlns:xlink="http://www.w3.org/1999/xlink" x="0px" y="0px"
	 viewBox="0 0 63 60" style="enable-background:new 0 0 63 60;" xml:space="preserve">
<style type="text/css">
	.st0{fill:#009CDE;}
</style>
<g>
	<path class="st0" d="M31.5,60c-5.9,0-11.5-2.1-15.9-6.1c-4.8-4.3-7.6-10.1-8-16.5C7.3,31,9.4,24.9,13.7,20.1
		c4.3-4.8,10.1-7.6,16.5-7.9c6.4-0.4,12.5,1.8,17.3,6s7.6,10.1,8,16.5c0,0.5-0.4,1-0.9,1c-0.5,0-1-0.4-1-0.9
		c-0.3-5.9-2.9-11.3-7.3-15.2c-4.4-3.9-10-5.9-15.9-5.6C24.4,14.4,19,17,15.1,21.4c-3.9,4.4-5.9,10-5.6,15.9
		c0.3,5.9,2.9,11.3,7.3,15.2c4.4,3.9,10,5.9,15.9,5.6c5.4-0.3,10.5-2.6,14.3-6.4c0.4-0.4,1-0.4,1.4,0c0.4,0.4,0.4,1,0,1.4
		c-4.2,4.2-9.7,6.6-15.6,7C32.4,60,31.9,60,31.5,60z"/>
	<path class="st0" d="M51.6,48.3c-0.2,0-0.3,0-0.5-0.1c-0.5-0.3-0.6-0.8-0.4-1.3c0.1-0.3,0.3-0.5,0.4-0.8c0.1-0.1,0.1-0.2,0.2-0.3
		c0.4-0.7,0.7-1.5,0.9-2.2c0.3-0.7,0.5-1.5,0.7-2.2c0-0.2,0.1-0.4,0.1-0.5c0.1-0.5,0.6-0.9,1.1-0.7c0.5,0.1,0.9,0.6,0.7,1.1
		c0,0.2-0.1,0.4-0.1,0.6c-0.2,0.8-0.4,1.6-0.7,2.4c-0.3,0.8-0.6,1.6-1,2.4c-0.1,0.1-0.1,0.2-0.2,0.4c-0.1,0.3-0.3,0.6-0.5,0.9
		C52.2,48.1,51.9,48.3,51.6,48.3z"/>
	<path class="st0" d="M32.4,41.1c-0.3,1.6-0.7,3.4-0.4,4.2c0.5,0,0.9,0,1.4-0.1c0.9-0.2,1.4,0.2,1.7,1l0.7,1.7
		c0.3,0.8,0.1,1.5-0.6,2c-1.5,0.9-3.5,1.7-5.4,1.7c-2.1,0-4.1-1.2-4.1-4.4c0-1.9,0.7-5.3,1.1-7.7l1.6-8.1c0.2-0.9,0.7-1.3,1.6-1.3
		H33c1,0,1.5,0.6,1.3,1.6L32.4,41.1z M36.5,23c0,1.5-0.7,3.1-1.8,4c-1,0.4-2.1,0.5-2.9,0.5c-2.2,0-3.1-1.4-3.1-3
		c0-0.9,0.2-1.8,0.7-2.7c0.3-0.7,0.9-1,1.6-1.1l3.2-0.5c0.7-0.1,1.4,0,1.7,0.6C36.3,21.5,36.5,22.2,36.5,23z"/>
</g>
</svg>
