<?xml version="1.0" encoding="utf-8"?>
<!-- Generator: Adobe Illustrator 24.0.2, SVG Export Plug-In . SVG Version: 6.00 Build 0)  -->
<svg version="1.1" id="Capa_1" xmlns="http://www.w3.org/2000/svg" xmlns:xlink="http://www.w3.org/1999/xlink" x="0px" y="0px"
	 viewBox="0 0 63 60" style="enable-background:new 0 0 63 60;" xml:space="preserve">
<style type="text/css">
	.st0{fill:#009CDE;}
</style>
<g>
	<path class="st0" d="M37.8,24.7c-2.3,0-4.6-0.9-6.2-2.5c-1.7-1.6-2.6-3.8-2.7-6.1c0-0.1,0-0.5,0-0.8c0-0.3,0.2-1.2,0.5-2.1
		C30.8,8.6,36.7,0.7,37,0.4C37.2,0.1,37.4,0,37.8,0c0,0,0,0,0,0c0.3,0,0.6,0.1,0.8,0.4c0.1,0.2,3.7,4.8,6.1,9.2
		c0.3,0.5,0.1,1.1-0.4,1.3c-0.5,0.3-1.1,0.1-1.3-0.4c-1.6-3.1-3.9-6.3-5.1-7.9c-1.7,2.3-5.5,7.8-6.6,11.1c-0.2,0.6-0.4,1.3-0.4,1.8
		c0,0.1,0,0.3,0,0.5c0.1,1.8,0.8,3.5,2.1,4.8c1.3,1.3,3,2,4.9,2c3.9,0,7-3.1,7-7c0-0.5,0.4-1,1-1c0.5,0,1,0.4,1,1
		C46.7,20.7,42.7,24.7,37.8,24.7z"/>
	<path class="st0" d="M15.6,35.6c-0.3,0-0.5-0.1-0.7-0.3c-0.4-0.4-0.4-1,0-1.4l1.5-1.5c0.4-0.4,1-0.4,1.4,0c0.4,0.4,0.4,1,0,1.4
		l-1.5,1.5C16.1,35.5,15.9,35.6,15.6,35.6z"/>
	<path class="st0" d="M18.6,60c-0.3,0-0.5-0.1-0.7-0.3L2.6,44.5c-0.4-0.4-0.4-1,0-1.4L4.7,41c0.4-0.4,1-0.4,1.4,0
		c0.4,0.4,0.4,1,0,1.4l-1.4,1.4l13.9,13.9l3.2-3.2L7.3,39.8c-0.4-0.4-0.4-1,0-1.4l2.6-2.6c0.2-0.2,0.4-0.3,0.7-0.3
		c0.3,0,0.5,0.1,0.7,0.3l12.5,13.1l4.9-4.9c0.2-0.2,0.4-0.3,0.7-0.3h18l1-0.7l9.9-13.6c0,0,0,0,0,0c0.1-0.2,0.2-0.4,0.2-0.7v-0.2
		c0-0.3-0.1-0.6-0.3-0.8c-0.2-0.2-0.5-0.3-0.8-0.3c0,0,0,0,0,0c-0.3,0-0.6,0.1-0.8,0.3L46.3,38c-0.1,0.1-0.3,0.2-0.5,0.3L45,38.5
		c-0.1,0-0.2,0-0.2,0H32.1c-0.5,0-1-0.4-1-1v-3.2c0-0.5,0.4-1,1-1h10.7c0.6,0,1.2-0.2,1.6-0.6c0.4-0.4,0.6-0.8,0.6-1.2
		c0-0.5-0.2-0.8-0.6-1.2c-0.4-0.4-1.1-0.6-1.7-0.6H24.2c-1,0-2,0.1-4.1,1.9c-0.4,0.4-1,0.3-1.4-0.1c-0.4-0.4-0.3-1,0.1-1.4
		c2.3-2,3.7-2.4,5.4-2.4h18.6c1.1,0,2.2,0.4,3,1.2c0.8,0.7,1.2,1.6,1.2,2.6c0,1.1-0.5,2-1.3,2.7c-0.8,0.7-1.8,1.1-2.9,1.1h-9.7v1.2
		h11.5l0.5-0.1l10.2-10.2c0.6-0.6,1.4-0.9,2.2-0.9c0,0,0,0,0,0c0.8,0,1.6,0.3,2.2,0.9c0.6,0.6,0.9,1.4,0.9,2.2v0.2
		c0,0.7-0.2,1.3-0.6,1.9L50,44.3c-0.1,0.1-0.2,0.2-0.2,0.2l-1.4,1c-0.2,0.1-0.4,0.2-0.6,0.2H29.9L24.5,51c-0.2,0.2-0.4,0.3-0.7,0.3
		c0,0,0,0,0,0c-0.3,0-0.5-0.1-0.7-0.3L10.6,37.9l-1.2,1.2l14.6,14.6c0.2,0.2,0.3,0.4,0.3,0.7s-0.1,0.5-0.3,0.7l-4.6,4.6
		C19.1,59.9,18.9,60,18.6,60z"/>
</g>
</svg>
