<?xml version="1.0" encoding="utf-8"?>
<!-- Generator: Adobe Illustrator 24.0.2, SVG Export Plug-In . SVG Version: 6.00 Build 0)  -->
<svg version="1.1" id="Capa_1" xmlns="http://www.w3.org/2000/svg" xmlns:xlink="http://www.w3.org/1999/xlink" x="0px" y="0px"
	 viewBox="0 0 63 60" style="enable-background:new 0 0 63 60;" xml:space="preserve">
<style type="text/css">
	.st0{fill:#009CDE;}
</style>
<g>
	<path class="st0" d="M9.5,38.2l5.6-19.1c0.1-0.2,0-0.5-0.1-0.7c-0.1-0.2-0.3-0.4-0.6-0.5l-6.9-2c-0.5-0.1-1,0.1-1.2,0.7L0.6,36
		c0,0,0,0,0,0c-0.2,0.8-0.1,2.5,1.5,3.5c0.5,0.3,1.1,0.1,1.3-0.4c0.3-0.5,0.1-1.1-0.4-1.3c-0.8-0.4-0.7-1.1-0.6-1.3l5.4-18.5
		l5.1,1.4L7.5,38.2c-0.1,0.3,0,0.7,0.2,0.9l2,2.3c0.2,0.2,0.5,0.3,0.7,0.3c0.2,0,0.5-0.1,0.6-0.2c0.4-0.4,0.4-1,0.1-1.4L9.5,38.2z"
		/>
	<path class="st0" d="M62.5,38.2l-6.7-19.3c0,0,0-0.1,0-0.1c0-0.1-1.2-2.4-4.7-1.3c-0.5,0.2-0.8,0.7-0.6,1.2s0.7,0.8,1.2,0.6
		c1.7-0.5,2.3,0.1,2.4,0.3L60.3,38l-4.6,1.6l-6.4-18.4c-0.1-0.2-0.2-0.3-0.3-0.4c0,0-0.1-0.1-0.1-0.1c-0.4-0.4-1-0.3-1.4,0.1
		c-0.6,0.7-2.8,2.5-5,2.5c-2.4,0-8.8-2-11.1-2.8c-0.6-0.2-4.8-1.8-6.6,0.3c-1.5,1.6-8.4,8.4-8.5,8.5c-0.1,0.1-0.2,0.2-0.2,0.3
		c-0.1,0.2-0.7,1.5,0.1,2.8c0.6,1,1.8,1.4,3.6,1.4c4.1,0,7.1-1,9.2-3.1c1.3-1.3,3.5-1.3,4.8,0c0.8,0.8,3.8,3.3,7.2,6.2
		c3.3,2.7,6.6,5.6,8.4,7.2c0,0,0,0,0.1,0c0.1,0.1,1.6,1.2,0.9,2.4c-0.2,0.3-0.5,0.7-1.3,0.6c-0.5,0-1-0.2-1-0.3l-0.3-0.2
		c-0.1,0-0.1-0.1-0.2-0.1l-6.8-3.7c-0.5-0.3-1.1-0.1-1.3,0.4c-0.3,0.5-0.1,1.1,0.4,1.3l6.9,3.7c0.3,0.3,1.4,1.3,0.8,2.4
		c-0.2,0.3-0.5,0.7-1.3,0.6c-0.5,0-1-0.2-1-0.3l-2.7-1.5c0,0,0,0-0.1-0.1c-0.1-0.1-0.2-0.1-0.3-0.2L37,46.5
		c-0.5-0.3-1.1-0.1-1.3,0.4c-0.3,0.5-0.1,1.1,0.4,1.3l5.4,2.9c0.4,0.3,1.3,1.3,0.8,2.3c-0.2,0.3-0.5,0.7-1.3,0.6c-0.5,0-1-0.2-1-0.3
		l-1.9-1c0,0-0.1-0.1-0.2-0.1l-4.9-2.6c-0.5-0.3-1.1-0.1-1.3,0.4s-0.1,1.1,0.4,1.3l4.9,2.6c0.3,0.3,1.4,1.3,0.8,2.4
		c-0.2,0.3-0.5,0.7-1.3,0.6c-0.5,0-1-0.2-1-0.3L31,54.7c0-0.9-0.4-1.7-1-2.4c-0.7-0.7-1.6-1-2.5-1c0-0.9-0.3-1.8-1-2.5
		c-0.7-0.7-1.6-1-2.5-1c0-0.9-0.3-1.8-1-2.5c-0.7-0.7-1.6-1-2.5-1c0-0.9-0.3-1.9-1-2.5c-0.7-0.7-1.5-1-2.4-1c-0.9,0-1.8,0.4-2.4,1
		l-1.8,1.8c-1.3,1.3-1.3,3.5,0,4.9c0.4,0.4,0.9,0.7,1.4,0.8c-1,1.3-0.8,3.2,0.4,4.4c0.7,0.7,1.5,1,2.4,1c0,0,0.1,0,0.1,0
		c0,0.9,0.3,1.8,1,2.5c0.7,0.7,1.5,1,2.4,1c0.7,0,1.4-0.2,2-0.6c0.2,0.5,0.5,1,0.8,1.4c0.7,0.7,1.6,1,2.5,1c0.5,0,1.1-0.1,1.6-0.4
		c0.5-0.2,0.7-0.8,0.4-1.3c-0.2-0.5-0.8-0.7-1.3-0.4c-0.6,0.3-1.3,0.2-1.8-0.3c-0.4-0.4-0.5-0.9-0.4-1.4c0.1-0.5-0.1-1.1-1-1.4
		c-0.3-0.1-0.7,0-1,0.2l-0.8,0.8c-0.3,0.3-0.7,0.4-1.1,0.4c-0.4,0-0.8-0.2-1.1-0.4c-0.5-0.5-0.6-1.2-0.2-1.8c0.3-0.5,0.1-1-0.1-1.2
		c-0.2-0.2-0.6-0.5-1.4-0.2c-0.6,0.3-1.3,0.2-1.7-0.3c-0.6-0.6-0.6-1.6,0-2.2l0.4-0.4c0.1-0.1,0.2-0.3,0.3-0.5
		c0.1-0.3,0-0.8-0.3-1.2c-0.2-0.2-0.5-0.5-1.2-0.6c-0.4,0-0.7-0.2-1-0.4c-0.6-0.6-0.6-1.6,0-2.2l1.8-1.8c0.3-0.3,0.7-0.4,1.1-0.4
		c0.4,0,0.8,0.2,1.1,0.4c0.6,0.6,0.6,1.5,0,2.1c-0.3,0.4-0.4,0.9,0,1.3c0.3,0.4,0.9,0.4,1.3,0.1l0,0c0.2-0.1,0.3-0.2,0.3-0.2
		c0.6-0.3,1.3-0.2,1.8,0.3c0.5,0.5,0.6,1.2,0.3,1.8c-0.2,0.5-0.2,1,0.2,1.3c0.3,0.3,0.7,0.4,1.3,0.1c0.6-0.3,1.3-0.2,1.8,0.3
		c0.4,0.4,0.6,1.1,0.3,1.7c0,0.1-0.1,0.3-0.2,0.4c0,0.1-0.1,0.1-0.1,0.1c-0.3,0.5-0.1,1,0.2,1.2c0.4,0.3,0.9,0.3,1.2,0
		c0.6-0.5,1.5-0.4,2,0.1c0.3,0.3,0.5,0.8,0.4,1.3c-0.1,0.4,0.1,0.9,0.5,1.1l5.1,2.8c0,0,0,0,0,0c0.5,0.3,1.2,0.5,2,0.5
		c1,0,2.1-0.4,2.8-1.6c0.4-0.7,0.5-1.3,0.4-1.9c0.3,0.1,0.5,0.1,0.9,0.2c0.1,0,0.2,0,0.3,0c1.2,0,2.2-0.6,2.8-1.6
		c0.4-0.6,0.5-1.2,0.5-1.7l0,0c0,0,0,0,0,0c0.1,0,0.8,0.4,1.7,0.5c0.1,0,0.2,0,0.3,0c1.2,0,2.2-0.6,2.8-1.6c0.5-0.9,0.5-1.8,0.3-2.6
		c1.1-0.1,2-0.6,2.5-1.6c1.2-2.1-0.3-4.1-1.4-4.9c-1.8-1.6-5.2-4.5-8.5-7.2c-3.3-2.7-6.4-5.3-7.1-6.1c-2.1-2.1-5.4-2.1-7.5,0
		c-1.7,1.7-4.3,2.6-7.8,2.6c-1.5,0-1.9-0.4-2-0.5c-0.2-0.2-0.1-0.6,0-0.8c1.1-1,7-6.8,8.4-8.4c0.8-0.9,3.4-0.2,4.5,0.2
		c0,0,0,0,0.1,0c0.3,0.1,8.6,2.9,11.8,2.9c2.2,0,4.2-1.2,5.3-2.2l6.3,18.1c0.1,0.2,0.3,0.4,0.5,0.6c0.1,0.1,0.3,0.1,0.4,0.1
		c0.1,0,0.2,0,0.3-0.1l6.5-2.3C62.4,39.3,62.6,38.7,62.5,38.2z"/>
</g>
</svg>
