<?xml version="1.0" encoding="utf-8"?>
<!-- Generator: Adobe Illustrator 24.0.2, SVG Export Plug-In . SVG Version: 6.00 Build 0)  -->
<svg version="1.1" id="Capa_1" xmlns="http://www.w3.org/2000/svg" xmlns:xlink="http://www.w3.org/1999/xlink" x="0px" y="0px"
	 viewBox="0 0 65 55" style="enable-background:new 0 0 65 55;" xml:space="preserve">
<style type="text/css">
	.st0{fill:#009CDE;}
	.st1{fill:#069AD7;}
</style>
<g>
	<path class="st1" d="M32.5,11.7C32.5,11.7,32.5,11.7,32.5,11.7C27.3,11.7,22,13.4,22,17c0,0,0,0,0,0l0.4,16c0,0.5,0.4,0.9,0.9,0.9
		c0,0,0,0,0,0c0.5,0,0.9-0.5,0.9-1L23.9,17c0-1.2,1.3-2,2.4-2.4c1.6-0.7,3.9-1,6.2-1c0,0,0,0,0,0c2.4,0,4.6,0.4,6.2,1
		c1.1,0.4,2.4,1.2,2.4,2.4L40.7,33c0,0.5,0.4,1,0.9,1c0,0,0,0,0,0c0.5,0,0.9-0.4,0.9-0.9L43,17.1c0,0,0,0,0,0
		C43,13.4,37.7,11.7,32.5,11.7z"/>
	<path class="st1" d="M32.5,34.7c-0.5,0-1,0.4-1,1V54c0,0.5,0.4,1,1,1c0.5,0,1-0.4,1-1V35.6C33.5,35.1,33,34.7,32.5,34.7z"/>
	<path class="st1" d="M38.2,18.1c-0.5,0-1,0.4-1,1v16.2L36.3,54c0,0.5,0.4,1,0.9,1c0,0,0,0,0,0c0.5,0,0.9-0.4,0.9-0.9l0.9-18.7
		c0,0,0,0,0,0V19.1C39.1,18.6,38.7,18.1,38.2,18.1z"/>
	<path class="st1" d="M27.8,19.1c0-0.5-0.4-1-1-1c-0.5,0-1,0.4-1,1v16.2c0,0,0,0,0,0l0.9,18.7c0,0.5,0.4,0.9,0.9,0.9c0,0,0,0,0,0
		c0.5,0,0.9-0.5,0.9-1l-0.9-18.7V19.1z"/>
	<path class="st1" d="M31.7,11.1C31.7,11.1,31.7,11.1,31.7,11.1c0.4,0.1,0.6,0.1,0.8,0.1c0.2,0,0.4,0,0.8-0.1c0,0,0.1,0,0.1,0
		c1.4-0.3,2.6-1.2,3.2-2.3c0.6-1.2,0.8-3.9,0.7-5c0,0,0,0,0,0C37.1,1.6,35.1,0,32.5,0c0,0,0,0,0,0c-2.6,0-4.6,1.6-4.8,3.9
		c-0.1,1.1,0.1,3.8,0.8,5C29,9.9,30.3,10.8,31.7,11.1z M29.6,4c0.1-1.5,1.6-2.1,2.9-2.1c1.4,0,2.8,0.7,2.9,2.1
		c0.1,1-0.2,3.2-0.5,3.9c-0.3,0.5-1,1.1-1.9,1.4c-0.4,0.1-0.5,0.1-0.9,0c-0.9-0.2-1.7-0.9-1.9-1.4C29.8,7.2,29.5,5,29.6,4z"/>
	<path class="st1" d="M59.3,15.7c-3.2-2.3-9.9-2.5-14-1.3c-0.5,0.2-0.8,0.7-0.6,1.2c0.2,0.5,0.7,0.8,1.2,0.6c4-1.2,10-0.8,12.3,1
		c0.6,0.5,1,1,1,1.5L58.7,34c0,0.5,0.4,1,0.9,1c0,0,0,0,0,0c0.5,0,0.9-0.4,0.9-0.9L61,18.9c0,0,0,0,0,0C61,18,60.7,16.8,59.3,15.7z"
		/>
	<path class="st1" d="M51,35.5c-0.5,0-1,0.4-1,1V54c0,0.5,0.4,1,1,1c0.5,0,1-0.4,1-1V36.5C51.9,36,51.5,35.5,51,35.5z"/>
	<path class="st1" d="M56.4,19.8c-0.5,0-1,0.4-1,1v15.4L54.5,54c0,0.5,0.4,1,0.9,1c0,0,0,0,0,0c0.5,0,0.9-0.4,0.9-0.9l0.9-17.8
		c0,0,0,0,0,0V20.8C57.3,20.2,56.9,19.8,56.4,19.8z"/>
	<path class="st1" d="M46.5,36.2v-13c0-0.5-0.4-1-1-1c-0.5,0-1,0.4-1,1v13.1c0,0,0,0,0,0l0.9,17.8c0,0.5,0.4,0.9,0.9,0.9
		c0,0,0,0,0,0c0.5,0,0.9-0.5,0.9-1L46.5,36.2z"/>
	<path class="st1" d="M50.2,13.2C50.2,13.2,50.2,13.2,50.2,13.2c0.4,0.1,0.6,0.1,0.8,0.1c0.2,0,0.4,0,0.7-0.1c0,0,0.1,0,0.1,0
		c1.3-0.3,2.5-1.2,3.1-2.2c0.6-1.2,0.8-3.7,0.7-4.7c0,0,0,0,0,0c-0.2-2.2-2.1-3.7-4.6-3.7c0,0,0,0,0,0c-2.5,0-4.4,1.5-4.6,3.7
		c-0.1,1,0.1,3.6,0.7,4.7C47.6,12.1,48.9,12.9,50.2,13.2z M48.2,6.4c0.1-1.4,1.5-2,2.7-2c1.3,0,2.6,0.6,2.7,2c0.1,0.9-0.2,3-0.5,3.6
		c-0.3,0.5-1,1.1-1.8,1.3c-0.4,0.1-0.4,0.1-0.8,0c-0.9-0.2-1.6-0.8-1.8-1.3C48.4,9.5,48.2,7.4,48.2,6.4z"/>
	<path class="st1" d="M18.7,16.2c0.5,0.1,1-0.2,1.2-0.7c0.1-0.5-0.2-1-0.7-1.2C15,13.2,8.6,13.5,5.6,15.8c-1.1,0.8-1.6,1.9-1.7,3
		c0,0,0,0,0,0L4.4,34c0,0.5,0.4,0.9,0.9,0.9c0,0,0,0,0,0c0.5,0,0.9-0.5,0.9-1L5.9,18.8c0-0.5,0.3-1,0.9-1.5c1.1-0.8,3-1.4,5.3-1.6
		C14.3,15.5,16.8,15.7,18.7,16.2z"/>
	<path class="st1" d="M14,35.5c-0.5,0-1,0.4-1,1V54c0,0.5,0.4,1,1,1c0.5,0,1-0.4,1-1V36.5C15,36,14.6,35.5,14,35.5z"/>
	<path class="st1" d="M19.5,22.2c-0.5,0-1,0.4-1,1v13L17.6,54c0,0.5,0.4,1,0.9,1c0,0,0,0,0,0c0.5,0,0.9-0.4,0.9-0.9l0.9-17.8
		c0,0,0,0,0,0V23.1C20.4,22.6,20,22.2,19.5,22.2z"/>
	<path class="st1" d="M9.6,20.8c0-0.5-0.4-1-1-1c-0.5,0-1,0.4-1,1v15.4c0,0,0,0,0,0l0.9,17.8C8.6,54.6,9,55,9.5,55c0,0,0,0,0,0
		c0.5,0,0.9-0.5,0.9-1L9.6,36.2V20.8z"/>
	<path class="st1" d="M13.2,13.2C13.3,13.2,13.3,13.2,13.2,13.2c0.4,0.1,0.6,0.1,0.8,0.1c0.2,0,0.4,0,0.7-0.1c0,0,0.1,0,0.1,0
		c1.3-0.3,2.5-1.2,3.1-2.2c0.6-1.2,0.8-3.7,0.7-4.7c0,0,0,0,0,0c-0.2-2.2-2.1-3.7-4.6-3.7c0,0,0,0,0,0c-2.5,0-4.4,1.5-4.6,3.7
		c-0.1,1,0.1,3.6,0.7,4.7C10.7,12.1,11.9,12.9,13.2,13.2z M11.3,6.4c0.1-1.4,1.5-2,2.7-2c1.3,0,2.6,0.6,2.7,2c0.1,0.9-0.2,3-0.5,3.6
		c-0.3,0.5-1,1.1-1.8,1.3c-0.4,0.1-0.4,0.1-0.8,0c-0.9-0.2-1.6-0.8-1.8-1.3C11.5,9.5,11.2,7.4,11.3,6.4z"/>
</g>
</svg>
