<?xml version="1.0" encoding="utf-8"?>
<!-- Generator: Adobe Illustrator 24.0.2, SVG Export Plug-In . SVG Version: 6.00 Build 0)  -->
<svg version="1.1" id="Capa_1" xmlns="http://www.w3.org/2000/svg" xmlns:xlink="http://www.w3.org/1999/xlink" x="0px" y="0px"
	 viewBox="0 0 65 55" style="enable-background:new 0 0 65 55;" xml:space="preserve">
<style type="text/css">
	.st0{fill:#009CDE;}
	.st1{fill:#069AD7;}
</style>
<g>
	<path class="st1" d="M10.4,27.8L16,8.4c0.1-0.2,0-0.5-0.1-0.7c-0.1-0.2-0.3-0.4-0.6-0.5l-7-2c-0.5-0.1-1,0.2-1.2,0.7L1.4,25.5
		c0,0,0,0,0,0c-0.2,0.8-0.1,2.5,1.5,3.5c0.5,0.3,1.1,0.1,1.3-0.4c0.3-0.5,0.1-1.1-0.4-1.3c-0.8-0.4-0.7-1.1-0.6-1.3L8.7,7.4l5.1,1.5
		L8.4,27.7c-0.1,0.3,0,0.7,0.2,0.9l2,2.3c0.2,0.2,0.5,0.3,0.7,0.3c0.2,0,0.5-0.1,0.6-0.2c0.4-0.4,0.4-1,0.1-1.4L10.4,27.8z"/>
	<path class="st1" d="M63.6,27.8L56.9,8.2c0,0,0-0.1,0-0.1c0-0.1-1.3-2.4-4.8-1.3C51.5,7,51.2,7.5,51.4,8c0.2,0.5,0.7,0.8,1.2,0.6
		c1.7-0.5,2.3,0.1,2.4,0.3l6.4,18.5l-4.7,1.6l-6.5-18.6c-0.1-0.2-0.2-0.3-0.3-0.4c0,0-0.1-0.1-0.1-0.1c-0.4-0.4-1-0.3-1.4,0.1
		c-0.7,0.7-2.8,2.6-5,2.6c-2.4,0-8.9-2-11.2-2.8c-0.6-0.3-4.8-1.9-6.7,0.3c-1.5,1.7-8.5,8.5-8.5,8.6c-0.1,0.1-0.2,0.2-0.2,0.3
		c-0.1,0.2-0.7,1.6,0.1,2.8c0.6,1,1.8,1.5,3.6,1.5c4.1,0,7.1-1,9.3-3.2c0.6-0.7,1.5-1,2.4-1c0,0,0,0,0,0c0.9,0,1.7,0.4,2.4,1
		c0.8,0.8,3.8,3.3,7.3,6.3c3.3,2.8,6.7,5.6,8.5,7.3c0,0,0,0,0.1,0.1c0,0,1.6,1.2,0.9,2.5c-0.2,0.3-0.5,0.7-1.3,0.6
		c-0.5,0-1-0.2-1-0.3L49,36.3c-0.1,0-0.1-0.1-0.2-0.1l-6.9-3.7c-0.5-0.3-1.1-0.1-1.3,0.4c-0.3,0.5-0.1,1.1,0.4,1.3l6.9,3.7
		c0.3,0.3,1.4,1.3,0.8,2.4c-0.2,0.3-0.5,0.7-1.3,0.6c-0.5,0-1-0.2-1-0.3l-2.7-1.5c0,0,0,0-0.1-0.1c-0.1-0.1-0.2-0.1-0.3-0.2
		l-5.2-2.8c-0.5-0.3-1.1-0.1-1.3,0.4c-0.3,0.5-0.1,1.1,0.4,1.3l5.5,3c0.4,0.3,1.3,1.3,0.8,2.3c-0.2,0.3-0.5,0.7-1.3,0.6
		c-0.5,0-1-0.2-1-0.3l-1.9-1c0,0-0.1-0.1-0.2-0.1l-4.9-2.7c-0.5-0.3-1.1-0.1-1.3,0.4c-0.3,0.5-0.1,1.1,0.4,1.3l4.9,2.7
		c0.3,0.3,1.5,1.3,0.8,2.4c-0.2,0.3-0.5,0.7-1.3,0.6c-0.5,0-1-0.2-1-0.3L32,44.5c0-0.9-0.4-1.7-1-2.4c-0.7-0.7-1.6-1.1-2.6-1
		c0-0.9-0.3-1.8-1-2.5c-0.7-0.7-1.6-1-2.5-1c0-0.9-0.3-1.9-1-2.6c-0.7-0.7-1.6-1-2.5-1c0-0.9-0.3-1.9-1-2.6c-1.4-1.4-3.6-1.4-4.9,0
		l-1.8,1.8c-0.7,0.7-1,1.5-1,2.5c0,0.9,0.4,1.8,1,2.5c0.4,0.4,0.9,0.7,1.4,0.9c-1,1.4-0.8,3.3,0.4,4.5c0.7,0.7,1.6,1,2.5,1
		c0,0.9,0.3,1.9,1,2.6c0.7,0.7,1.5,1,2.5,1c0.7,0,1.4-0.2,2-0.6c0.2,0.5,0.5,1,0.9,1.4c0.7,0.7,1.6,1,2.5,1c0.6,0,1.1-0.1,1.6-0.4
		c0.5-0.3,0.7-0.8,0.4-1.3c-0.2-0.5-0.8-0.7-1.3-0.4c-0.6,0.3-1.3,0.2-1.8-0.3c-0.4-0.4-0.5-0.9-0.4-1.4c0.1-0.5-0.1-1.1-1-1.4
		c-0.3-0.1-0.7,0-1,0.2l-0.8,0.8c-0.3,0.3-0.7,0.4-1.1,0.4c-0.4,0-0.8-0.2-1.1-0.4c-0.5-0.5-0.6-1.2-0.3-1.8c0.3-0.5,0.1-1-0.1-1.3
		c-0.2-0.2-0.6-0.5-1.4-0.2c-0.6,0.3-1.3,0.2-1.7-0.3c-0.6-0.6-0.6-1.6,0-2.2l0.4-0.4c0.1-0.1,0.2-0.3,0.3-0.5
		c0.1-0.3,0-0.8-0.3-1.2c-0.2-0.2-0.6-0.5-1.2-0.6c-0.4,0-0.7-0.2-1-0.4c-0.3-0.3-0.4-0.7-0.4-1.1c0-0.4,0.2-0.8,0.4-1.1l1.8-1.8
		c0.6-0.6,1.6-0.6,2.2,0c0.6,0.6,0.6,1.5,0,2.1c-0.3,0.4-0.4,0.9,0,1.3c0.3,0.4,0.9,0.4,1.3,0.1l0,0c0.2-0.1,0.3-0.2,0.3-0.2
		c0.6-0.3,1.3-0.2,1.8,0.3c0.5,0.5,0.6,1.2,0.3,1.8c-0.2,0.5-0.2,1,0.2,1.4c0.3,0.3,0.7,0.4,1.3,0.1c0.6-0.3,1.3-0.2,1.8,0.3
		c0.4,0.4,0.6,1.1,0.3,1.7c0,0.1-0.1,0.3-0.2,0.4c0,0.1-0.1,0.1-0.1,0.1c-0.3,0.5-0.1,1,0.2,1.3c0.4,0.3,0.9,0.3,1.3,0
		c0.6-0.5,1.5-0.5,2.1,0.1c0.3,0.3,0.5,0.8,0.4,1.3c-0.1,0.4,0.1,0.9,0.5,1.1l5.2,2.8c0,0,0,0,0,0c0.5,0.3,1.3,0.5,2.1,0.5
		c1,0,2.1-0.4,2.8-1.6c0.4-0.7,0.5-1.3,0.4-1.9c0.3,0.1,0.5,0.1,0.9,0.2c0.1,0,0.2,0,0.3,0c1.2,0,2.2-0.6,2.8-1.6
		c0.4-0.6,0.5-1.2,0.5-1.8l0,0c0,0,0,0,0,0c0.1,0,0.8,0.4,1.7,0.5c0.1,0,0.2,0,0.3,0c1.2,0,2.2-0.6,2.8-1.6c0.5-0.9,0.5-1.9,0.3-2.7
		c1.1-0.1,2-0.6,2.5-1.6c1.2-2.1-0.3-4.2-1.4-5c-1.8-1.7-5.2-4.5-8.5-7.3c-3.3-2.8-6.4-5.4-7.2-6.1c-1-1-2.3-1.6-3.7-1.6
		c-1.4,0-2.8,0.5-3.8,1.6c-1.7,1.7-4.3,2.6-7.9,2.6c-1.5,0-1.9-0.4-2-0.6c-0.2-0.2-0.1-0.6,0-0.8c1.1-1.1,7-6.9,8.5-8.5
		c0.8-0.9,3.4-0.2,4.5,0.2c0,0,0,0,0.1,0c0.4,0.1,8.6,2.9,11.8,2.9c2.2,0,4.2-1.3,5.3-2.2l6.4,18.3c0.1,0.2,0.3,0.4,0.5,0.6
		c0.1,0.1,0.3,0.1,0.4,0.1c0.1,0,0.2,0,0.3-0.1L63,29C63.6,28.8,63.8,28.3,63.6,27.8z"/>
</g>
</svg>
