<?xml version="1.0" encoding="utf-8"?>
<!-- Generator: Adobe Illustrator 24.0.2, SVG Export Plug-In . SVG Version: 6.00 Build 0)  -->
<svg version="1.1" id="Capa_1" xmlns="http://www.w3.org/2000/svg" xmlns:xlink="http://www.w3.org/1999/xlink" x="0px" y="0px"
	 viewBox="0 0 65 55" style="enable-background:new 0 0 65 55;" xml:space="preserve">
<style type="text/css">
	.st0{fill:#009CDE;}
	.st1{fill:#069AD7;}
</style>
<g>
	<path class="st1" d="M57.1,11.7c-0.2-0.2-0.4-0.3-0.7-0.3h-25l0.5-1c0.2-0.5,0-1.1-0.5-1.3c-0.5-0.2-1,0-1.3,0.5l-7.4,16.1
		c-0.9,1.9-1.8,3.3-3.6,3.8c-1.5,0.4-3.2,0.1-4.4-0.8c-0.3-0.3-0.7-0.6-0.9-1c-1.1-1.6-1.2-3.2-0.4-5c2.1-4.5,4.2-9.1,6.3-13.6
		c0.8-1.7,1.6-3.4,2.3-5l0-0.1c0-0.1,0.1-0.1,0.1-0.2c0.7-1.2,1.6-1.8,2.9-1.9c1,0,1.9,0.4,2.6,1.2c0.7,0.7,1,1.7,0.8,2.6
		c0,0.3-0.1,0.6-0.3,0.9c-0.2,0.5-0.5,1.1-0.7,1.6c-0.1,0.2-0.2,0.5-0.3,0.7l-1.2,2.7c-1.7,3.7-3.5,7.5-5.2,11.2
		c-0.4,0.8-1,1.2-1.8,1.3c-0.6,0-1.1-0.3-1.5-0.8c-0.4-0.5-0.5-1.1-0.3-1.7c0.1-0.2,0.2-0.5,0.3-0.7c1.8-3.9,3.6-7.8,5.4-11.6
		l1.1-2.3c0.2-0.5,0-1.1-0.5-1.3c-0.5-0.2-1,0-1.3,0.5l-1.1,2.3c-1.8,3.9-3.6,7.8-5.4,11.6c-0.1,0.3-0.2,0.6-0.3,0.9
		c-0.4,1.1-0.1,2.4,0.6,3.4c0.8,1,1.9,1.6,3.1,1.5c1.6-0.1,2.8-0.9,3.5-2.4c1.7-3.7,3.5-7.5,5.2-11.2L29,9.8
		c0.1-0.2,0.2-0.5,0.3-0.7c0.3-0.6,0.5-1.1,0.8-1.7c0.2-0.5,0.3-0.9,0.4-1.3c0.2-1.5-0.3-3-1.3-4.2c-1.1-1.2-2.6-1.9-4.1-1.8
		c-2,0.1-3.6,1.1-4.5,2.8c-0.1,0.1-0.1,0.2-0.2,0.3l0,0.1c-0.8,1.7-1.6,3.4-2.3,5c-2.1,4.5-4.2,9.1-6.3,13.6
		c-1.1,2.4-0.9,4.8,0.5,6.9c0.4,0.5,0.8,1,1.3,1.4c1.2,1,2.7,1.5,4.2,1.5c0.6,0,1.3-0.1,1.9-0.3c2.6-0.7,3.8-2.8,4.8-4.9l6.1-13.2
		h24.9l0,30.6h-7.8c-0.5,0-1,0.4-1,1v8.1c0,0,0,0.1,0,0.1H9.5l0.3-39.8h4.5c0.5,0,1-0.4,1-1c0-0.5-0.4-1-1-1H8.9c-0.5,0-1,0.4-1,1
		L7.6,54c0,0.3,0.1,0.5,0.3,0.7C8.1,54.9,8.3,55,8.6,55h39.9c0.3,0,0.5-0.1,0.7-0.3l8-8.2c0.2-0.2,0.3-0.4,0.3-0.7l0-33.5
		C57.4,12.1,57.3,11.8,57.1,11.7z M48.6,52.5v-6.7h6.5L48.6,52.5z"/>
</g>
</svg>
