<?xml version="1.0" encoding="utf-8"?>
<!-- Generator: Adobe Illustrator 24.0.2, SVG Export Plug-In . SVG Version: 6.00 Build 0)  -->
<svg version="1.1" id="Capa_1" xmlns="http://www.w3.org/2000/svg" xmlns:xlink="http://www.w3.org/1999/xlink" x="0px" y="0px"
	 viewBox="0 0 30 30" style="enable-background:new 0 0 30 30;" xml:space="preserve">
<style type="text/css">
	.st0{fill:#009CDE;}
</style>
<g>
	<path class="st0" d="M15,30C6.7,30,0,23.3,0,15S6.7,0,15,0c8.3,0,15,6.7,15,15S23.3,30,15,30z M15,1.9C7.8,1.9,1.9,7.8,1.9,15
		S7.8,28.1,15,28.1c7.2,0,13.1-5.9,13.1-13.1S22.2,1.9,15,1.9z"/>
	<path class="st0" d="M14.7,7.4c-0.4,0.4-0.4,1,0,1.4l5.4,5.3H7.5c-0.5,0-1,0.4-1,1s0.4,1,1,1h12.5l-5.4,5.3c-0.4,0.4-0.4,1,0,1.4
		c0.4,0.4,1,0.4,1.4,0l7.1-6.9c0.2-0.2,0.3-0.4,0.3-0.7c0-0.2-0.1-0.5-0.3-0.7l-7.1-6.9C15.7,7,15.1,7,14.7,7.4z"/>
</g>
</svg>
