<?xml version="1.0" encoding="utf-8"?>
<!-- Generator: Adobe Illustrator 24.0.2, SVG Export Plug-In . SVG Version: 6.00 Build 0)  -->
<svg version="1.1" id="Capa_1" xmlns="http://www.w3.org/2000/svg" xmlns:xlink="http://www.w3.org/1999/xlink" x="0px" y="0px"
	 viewBox="0 0 30 30" style="enable-background:new 0 0 30 30;" xml:space="preserve">
<style type="text/css">
	.st0{fill:#069AD7;}
</style>
<g>
	<path class="st0" d="M27.4,29.9H2.6c-1.5,0-2.6-1.2-2.6-2.6V2.7c0-1.4,1.2-2.6,2.6-2.6h24.7c1.5,0,2.6,1.2,2.6,2.6
		c0,0.3-0.2,0.5-0.5,0.5c-0.3,0-0.5-0.2-0.5-0.5c0-0.9-0.7-1.6-1.7-1.6H2.6C1.7,1.1,1,1.8,1,2.7v24.6c0,0.9,0.7,1.6,1.6,1.6h24.7
		c0.9,0,1.7-0.7,1.7-1.6V7.4C29,7.2,29.2,7,29.5,7C29.8,7,30,7.2,30,7.4v19.9C30,28.7,28.8,29.9,27.4,29.9z"/>
	<path class="st0" d="M9.1,25.6H4.8c-0.3,0-0.5-0.2-0.5-0.5V11.4c0-0.3,0.2-0.5,0.5-0.5h4.3c0.3,0,0.5,0.2,0.5,0.5
		c0,0.3-0.2,0.5-0.5,0.5H5.3v12.8h3.3V13.9c0-0.3,0.2-0.5,0.5-0.5c0.3,0,0.5,0.2,0.5,0.5v11.2C9.6,25.4,9.4,25.6,9.1,25.6z M6.9,10
		c-1.6,0-3-1.3-3-3c0-1.6,1.3-3,3-3s3,1.3,3,3C9.9,8.7,8.6,10,6.9,10z M6.9,5.1c-1.1,0-2,0.9-2,2c0,1.1,0.9,2,2,2c1.1,0,2-0.9,2-2
		C8.9,5.9,8,5.1,6.9,5.1z"/>
	<path class="st0" d="M25.2,25.6h-4.3c-0.3,0-0.5-0.2-0.5-0.5V21c0-0.3,0.2-0.5,0.5-0.5c0.3,0,0.5,0.2,0.5,0.5v3.6h3.3v-7
		c0-2.1-0.3-3.5-0.9-4.4c-0.7-1.1-1.9-1.7-3.8-1.7c-1.9,0-3.2,1.1-3.6,2c-0.1,0.2-0.3,0.3-0.4,0.3h-0.1c-0.3,0-0.5-0.2-0.5-0.5v-1.4
		h-3.1v12.8h3.3v-6.3c0-0.8,0.1-1.9,0.5-2.7c0.5-0.9,1.4-1.3,2.6-1.3c1.2,0,2,0.5,2.4,1.5c0.3,0.8,0.3,1.8,0.3,2.6
		c0,0.3-0.2,0.5-0.5,0.5c-0.3,0-0.5-0.2-0.5-0.5c0-2.1-0.3-3.2-1.7-3.2c-1.1,0-1.5,0.5-1.7,0.8c-0.3,0.6-0.4,1.6-0.4,2.2v6.8
		c0,0.3-0.2,0.5-0.5,0.5h-4.3c-0.3,0-0.5-0.2-0.5-0.5V11.4c0-0.3,0.2-0.5,0.5-0.5h4.1c0.3,0,0.5,0.2,0.5,0.5v0.5
		c0.2-0.2,0.5-0.4,0.8-0.6c0.8-0.5,1.8-0.8,2.9-0.8c5,0,5.7,3.6,5.7,7v7.5C25.7,25.4,25.5,25.6,25.2,25.6z"/>
</g>
</svg>
