<svg xmlns="http://www.w3.org/2000/svg" viewBox="0 0 295.51 295.51"><defs><style>.cls-1{fill:#dbdbdb;}.cls-2,.cls-56,.cls-57{fill:none;stroke-miterlimit:10;}.cls-2,.cls-56{stroke:#00acd8;}.cls-2{stroke-width:0.45px;}.cls-3{font-size:11px;fill:#002554;font-family:Rotoplas-Regular, Rotoplas;}.cls-4{letter-spacing:-0.01em;}.cls-5{letter-spacing:0em;}.cls-6{letter-spacing:0.01em;}.cls-7{letter-spacing:0em;}.cls-8{letter-spacing:0em;}.cls-9{letter-spacing:0em;}.cls-10{letter-spacing:0em;}.cls-11{letter-spacing:0em;}.cls-12{letter-spacing:0em;}.cls-13{letter-spacing:0em;}.cls-14{letter-spacing:-0.01em;}.cls-15{letter-spacing:0em;}.cls-16{letter-spacing:0em;}.cls-17{letter-spacing:0em;}.cls-18{letter-spacing:-0.01em;}.cls-19{letter-spacing:0em;}.cls-20{letter-spacing:0.02em;}.cls-21{letter-spacing:0.01em;}.cls-22{letter-spacing:0em;}.cls-23{letter-spacing:0.01em;}.cls-24{letter-spacing:0em;}.cls-25{letter-spacing:0em;}.cls-26{letter-spacing:0em;}.cls-27{letter-spacing:0em;}.cls-28{letter-spacing:0em;}.cls-29{letter-spacing:0em;}.cls-30{letter-spacing:-0.01em;}.cls-31{letter-spacing:-0.02em;}.cls-32{letter-spacing:0.01em;}.cls-33{letter-spacing:0.02em;}.cls-34{letter-spacing:0.02em;}.cls-35{letter-spacing:0.02em;}.cls-36{letter-spacing:0.02em;}.cls-37{letter-spacing:0em;}.cls-38{letter-spacing:0em;}.cls-39{letter-spacing:0em;}.cls-40{letter-spacing:0em;}.cls-41{letter-spacing:0em;}.cls-42{letter-spacing:0.01em;}.cls-43{letter-spacing:0em;}.cls-44{letter-spacing:0em;}.cls-45{letter-spacing:0em;}.cls-46{letter-spacing:0em;}.cls-47{letter-spacing:-0.01em;}.cls-48{letter-spacing:0em;}.cls-49{letter-spacing:0em;}.cls-50{letter-spacing:0.01em;}.cls-51{letter-spacing:0em;}.cls-52{letter-spacing:0.01em;}.cls-53{letter-spacing:0em;}.cls-54{letter-spacing:0em;}.cls-55{letter-spacing:0.01em;}.cls-56{stroke-width:0.9px;}.cls-57{stroke:#397cc9;stroke-width:0.75px;}</style></defs><title>impacto-360</title><g id="Capa_2" data-name="Capa 2"><g id="Capa_1-2" data-name="Capa 1"><circle class="cls-1" cx="147.75" cy="147.75" r="127"/><circle class="cls-2" cx="147.75" cy="147.75" r="143"/><text class="cls-3" transform="translate(121.32 65.26)"><tspan class="cls-4">C</tspan><tspan class="cls-5" x="7.05" y="0">o</tspan><tspan class="cls-6" x="13.47" y="0">l</tspan><tspan class="cls-7" x="16.72" y="0">a</tspan><tspan class="cls-8" x="22.88" y="0">b</tspan><tspan class="cls-9" x="29.45" y="0">o</tspan><tspan class="cls-10" x="35.84" y="0">r</tspan><tspan class="cls-11" x="40.26" y="0">a</tspan><tspan class="cls-12" x="46.39" y="0">do</tspan><tspan x="59.47" y="0">r</tspan><tspan class="cls-13" x="63.86" y="0">e</tspan><tspan x="69.77" y="0">s</tspan><tspan class="cls-14" x="0" y="26.4">C</tspan><tspan class="cls-15" x="7.08" y="26.4">l</tspan><tspan class="cls-16" x="10.17" y="26.4">i</tspan><tspan class="cls-17" x="13.24" y="26.4">e</tspan><tspan class="cls-18" x="19.11" y="26.4">n</tspan><tspan class="cls-19" x="25.93" y="26.4">t</tspan><tspan class="cls-13" x="30.62" y="26.4">e</tspan><tspan x="36.53" y="26.4">s y </tspan><tspan class="cls-20" x="53.62" y="26.4">u</tspan><tspan class="cls-5" x="60.57" y="26.4">s</tspan><tspan class="cls-21" x="65.88" y="26.4">u</tspan><tspan class="cls-22" x="72.8" y="26.4">a</tspan><tspan class="cls-23" x="78.91" y="26.4">r</tspan><tspan class="cls-16" x="83.36" y="26.4">i</tspan><tspan class="cls-24" x="86.43" y="26.4">o</tspan><tspan x="92.84" y="26.4">s</tspan><tspan class="cls-25" x="0" y="52.8">P</tspan><tspan class="cls-26" x="7.03" y="52.8">r</tspan><tspan class="cls-27" x="11.43" y="52.8">o</tspan><tspan class="cls-28" x="17.8" y="52.8">v</tspan><tspan class="cls-10" x="23.51" y="52.8">e</tspan><tspan class="cls-29" x="29.43" y="52.8">e</tspan><tspan class="cls-12" x="35.33" y="52.8">do</tspan><tspan x="48.42" y="52.8">r</tspan><tspan class="cls-13" x="52.8" y="52.8">e</tspan><tspan x="58.71" y="52.8">s</tspan><tspan class="cls-30" x="0" y="79.2">I</tspan><tspan class="cls-31" x="3.45" y="79.2">n</tspan><tspan class="cls-28" x="10.17" y="79.2">v</tspan><tspan class="cls-17" x="15.89" y="79.2">e</tspan><tspan class="cls-32" x="21.75" y="79.2">r</tspan><tspan x="26.27" y="79.2">s</tspan><tspan class="cls-16" x="31.57" y="79.2">i</tspan><tspan class="cls-9" x="34.64" y="79.2">o</tspan><tspan x="41.03" y="79.2">n</tspan><tspan class="cls-33" x="47.93" y="79.2">i</tspan><tspan class="cls-34" x="51.22" y="79.2">s</tspan><tspan class="cls-35" x="56.74" y="79.2">t</tspan><tspan class="cls-36" x="61.62" y="79.2">a</tspan><tspan x="67.95" y="79.2">s y</tspan><tspan class="cls-4" x="0" y="92.4">C</tspan><tspan class="cls-37" x="7.05" y="92.4">o</tspan><tspan class="cls-38" x="13.44" y="92.4">m</tspan><tspan class="cls-39" x="23.73" y="92.4">u</tspan><tspan x="30.46" y="92.4">n</tspan><tspan class="cls-39" x="37.35" y="92.4">i</tspan><tspan class="cls-21" x="40.45" y="92.4">d</tspan><tspan class="cls-40" x="47.33" y="92.4">a</tspan><tspan class="cls-5" x="53.46" y="92.4">d </tspan><tspan class="cls-41" x="63.27" y="92.4">fi</tspan><tspan class="cls-42" x="69.7" y="92.4">n</tspan><tspan class="cls-43" x="76.75" y="92.4">an</tspan><tspan class="cls-44" x="89.72" y="92.4">c</tspan><tspan class="cls-16" x="95.36" y="92.4">i</tspan><tspan class="cls-17" x="98.43" y="92.4">e</tspan><tspan class="cls-45" x="104.29" y="92.4">r</tspan><tspan class="cls-46" x="108.72" y="92.4">a</tspan><tspan class="cls-47" x="0" y="118.8">A</tspan><tspan class="cls-48" x="7.3" y="118.8">u</tspan><tspan class="cls-49" x="14.05" y="118.8">t</tspan><tspan class="cls-9" x="18.73" y="118.8">o</tspan><tspan class="cls-50" x="25.12" y="118.8">r</tspan><tspan class="cls-51" x="29.58" y="118.8">i</tspan><tspan class="cls-52" x="32.67" y="118.8">d</tspan><tspan class="cls-40" x="39.55" y="118.8">a</tspan><tspan class="cls-12" x="45.68" y="118.8">d</tspan><tspan class="cls-13" x="52.38" y="118.8">e</tspan><tspan x="58.29" y="118.8">s</tspan><tspan class="cls-15" x="0" y="145.2">A</tspan><tspan class="cls-53" x="7.35" y="145.2">c</tspan><tspan class="cls-11" x="13.05" y="145.2">a</tspan><tspan class="cls-12" x="19.18" y="145.2">d</tspan><tspan class="cls-17" x="25.88" y="145.2">e</tspan><tspan class="cls-54" x="31.74" y="145.2">m</tspan><tspan class="cls-55" x="42.09" y="145.2">í</tspan><tspan x="45.37" y="145.2">a</tspan><tspan class="cls-4" x="0" y="171.6">C</tspan><tspan class="cls-37" x="7.05" y="171.6">o</tspan><tspan class="cls-38" x="13.44" y="171.6">m</tspan><tspan class="cls-39" x="23.73" y="171.6">u</tspan><tspan x="30.46" y="171.6">n</tspan><tspan class="cls-39" x="37.35" y="171.6">i</tspan><tspan class="cls-21" x="40.45" y="171.6">d</tspan><tspan class="cls-40" x="47.33" y="171.6">a</tspan><tspan class="cls-12" x="53.46" y="171.6">d</tspan><tspan class="cls-13" x="60.16" y="171.6">e</tspan><tspan x="66.06" y="171.6">s</tspan></text><polyline class="cls-56" points="142.23 0.33 146.95 4.72 142.23 9.1"/><polyline class="cls-56" points="39.61 47.41 46.05 47.18 45.81 53.62"/><polyline class="cls-56" points="0.33 153.27 4.72 148.55 9.1 153.27"/><polyline class="cls-56" points="47.41 255.9 47.18 249.46 53.62 249.69"/><polyline class="cls-56" points="153.27 295.18 148.55 290.79 153.27 286.4"/><polyline class="cls-56" points="255.9 248.09 249.46 248.33 249.69 241.89"/><polyline class="cls-56" points="295.18 142.23 290.79 146.95 286.4 142.23"/><polyline class="cls-56" points="248.09 39.61 248.33 46.05 241.89 45.81"/><line class="cls-57" x1="82.37" y1="61.56" x2="112.18" y2="61.56"/><polyline class="cls-57" points="108.44 58.09 112.18 61.56 108.44 65.03"/><line class="cls-57" x1="82.37" y1="88.17" x2="112.18" y2="88.17"/><polyline class="cls-57" points="108.44 84.7 112.18 88.17 108.44 91.65"/><line class="cls-57" x1="82.37" y1="113.86" x2="112.18" y2="113.86"/><polyline class="cls-57" points="108.44 110.39 112.18 113.86 108.44 117.33"/><line class="cls-57" x1="82.37" y1="141.12" x2="112.18" y2="141.12"/><polyline class="cls-57" points="108.44 137.65 112.18 141.12 108.44 144.59"/><line class="cls-57" x1="82.37" y1="180.05" x2="112.18" y2="180.05"/><polyline class="cls-57" points="108.44 176.57 112.18 180.05 108.44 183.52"/><line class="cls-57" x1="82.37" y1="206.11" x2="112.18" y2="206.11"/><polyline class="cls-57" points="108.44 202.64 112.18 206.11 108.44 209.58"/><line class="cls-57" x1="82.37" y1="233.3" x2="112.18" y2="233.3"/><polyline class="cls-57" points="108.44 229.82 112.18 233.3 108.44 236.77"/></g></g></svg>