<?xml version="1.0" encoding="utf-8"?>
<!-- Generator: Adobe Illustrator 25.4.1, SVG Export Plug-In . SVG Version: 6.00 Build 0)  -->
<svg version="1.1" id="Capa_1" xmlns="http://www.w3.org/2000/svg" xmlns:xlink="http://www.w3.org/1999/xlink" x="0px" y="0px"
	 viewBox="0 0 295.5 295.5" style="enable-background:new 0 0 295.5 295.5;" xml:space="preserve">
<style type="text/css">
	.st0{fill:#DBDBDB;}
	.st1{fill:none;stroke:#00ACD8;stroke-width:0.45;stroke-miterlimit:10;}
	.st2{enable-background:new    ;}
	.st3{fill:#002554;}
	.st4{fill:none;stroke:#00ACD8;stroke-width:0.9;stroke-miterlimit:10;}
	.st5{fill:none;stroke:#397CC9;stroke-width:0.75;stroke-miterlimit:10;}
</style>
<circle class="st0" cx="147.8" cy="147.8" r="127"/>
<circle class="st1" cx="147.8" cy="147.8" r="143"/>
<g class="st2">
	<path class="st3" d="M127.2,58.5c0,0.2-0.1,0.3-0.3,0.3h-3.2V61h2.7c0.2,0,0.3,0.1,0.3,0.3v0.4c0,0.2-0.1,0.3-0.3,0.3h-2.7v2.3h3.4
		c0.2,0,0.3,0.1,0.3,0.3V65c0,0.2-0.1,0.3-0.3,0.3h-4.2c-0.2,0-0.3-0.1-0.3-0.3v-6.9c0-0.2,0.1-0.3,0.3-0.3h4.1
		c0.2,0,0.3,0.1,0.3,0.3V58.5z"/>
</g>
<g class="st2">
	<path class="st3" d="M129.7,60.3c0.5-0.4,1.1-0.7,1.8-0.7c0.7,0,1.3,0.2,1.7,0.7c0.5-0.4,1.2-0.7,1.9-0.7c1.2,0,2,0.7,2,1.9v2.1
		c0,0.3,0,0.5,0.1,0.7c0.1,0,0.3,0,0.5,0c0.2,0,0.3,0.1,0.3,0.3v0.3c0,0.1,0,0.3-0.2,0.3c-0.2,0.1-0.5,0.2-0.7,0.2
		c-0.6,0-1-0.4-1-1.1V62c0-1-0.4-1.3-1.2-1.3c-0.5,0-0.8,0.1-1.3,0.3c0,0.2,0,0.4,0,0.6V65c0,0.2-0.1,0.3-0.3,0.3h-0.5
		c-0.2,0-0.3-0.1-0.3-0.3v-3.1c0-0.9-0.4-1.3-1.2-1.3c-0.5,0-0.9,0.1-1.4,0.3c0,0.2,0,0.4,0,0.6V65c0,0.2-0.1,0.3-0.3,0.3h-0.5
		c-0.2,0-0.3-0.1-0.3-0.3v-3.2c0-0.6-0.1-1-0.3-1.3c-0.1-0.1-0.1-0.3,0-0.4l0.3-0.3c0.1-0.1,0.2-0.1,0.4,0
		C129.5,59.9,129.6,60.1,129.7,60.3z"/>
	<path class="st3" d="M140,60.3c0.5-0.4,1.2-0.7,1.8-0.7c1.4,0,2.3,1,2.3,2.8c0,1.8-0.9,2.9-2.6,2.9c-0.5,0-1.1-0.1-1.4-0.3v2.4
		c0,0.2-0.1,0.3-0.3,0.3h-0.5c-0.2,0-0.3-0.1-0.3-0.3v-5.7c0-0.6-0.1-1-0.3-1.3c-0.1-0.1-0.1-0.3,0-0.4l0.3-0.3
		c0.1-0.1,0.2-0.1,0.4,0C139.7,59.9,139.9,60.1,140,60.3z M140.1,61c0,0.2,0,0.4,0,0.6v2.6c0.4,0.1,0.8,0.2,1.2,0.2
		c0.5,0,0.9-0.1,1.2-0.3c0.3-0.4,0.4-0.9,0.4-1.6c0-1.2-0.6-1.8-1.6-1.8C141,60.7,140.5,60.8,140.1,61z"/>
	<path class="st3" d="M146.6,63.6c0,0.3,0,0.5,0.1,0.7c0.1,0,0.3,0,0.5,0c0.2,0,0.3,0.1,0.3,0.3v0.3c0,0.1-0.1,0.3-0.2,0.3
		c-0.2,0.1-0.5,0.2-0.7,0.2c-0.6,0-1-0.4-1-1.1v-6.7c0-0.2,0.1-0.3,0.3-0.3l0.5-0.1c0.2,0,0.3,0.1,0.3,0.3V63.6z"/>
	<path class="st3" d="M153.4,62.5c0,1.8-0.9,2.9-2.6,2.9c-1.7,0-2.6-1.2-2.6-2.9c0-1.7,0.9-2.8,2.6-2.8
		C152.5,59.7,153.4,60.8,153.4,62.5z M149.7,60.9c-0.3,0.3-0.4,0.9-0.4,1.6c0,1.1,0.4,1.9,1.6,1.9c0.4,0,0.8-0.1,1.1-0.3
		c0.3-0.3,0.4-0.9,0.4-1.6c0-1.1-0.4-1.9-1.6-1.9C150.4,60.7,150,60.7,149.7,60.9z"/>
	<path class="st3" d="M154.4,67.7l-0.1-0.2c-0.1-0.2-0.1-0.3,0.1-0.4c0.4-0.3,0.8-0.6,1.1-0.9c0.1-0.2,0.3-0.6,0.5-1l-1.9-5.1
		c-0.1-0.2,0-0.3,0.2-0.3l0.6-0.1c0.2,0,0.3,0,0.3,0.2l1.6,4.2l0.5-0.9c0.4-0.8,0.7-1.4,0.9-2c0-0.5,0-0.8-0.1-1.2
		c0-0.2,0.1-0.3,0.2-0.3l0.5-0.1c0.1,0,0.3,0,0.4,0.1c0.1,0.2,0.2,0.4,0.2,0.6c0,0.6-0.4,1.6-1,2.7l-1.6,3c-0.4,0.9-0.9,1.2-1.9,1.6
		C154.5,67.9,154.4,67.8,154.4,67.7z"/>
	<path class="st3" d="M160,62.6c0-1.7,0.9-2.9,2.6-2.9c1.3,0,2.1,0.8,2.1,2.1c0,0.2,0,0.5-0.1,0.8c0,0.2-0.2,0.2-0.3,0.2l-3.2,0.1
		c0.1,0.9,0.6,1.6,1.7,1.6c0.5,0,0.9-0.1,1.3-0.3c0.2-0.1,0.3,0,0.4,0.1l0.1,0.2c0.1,0.1,0,0.3-0.1,0.4c-0.4,0.3-1.1,0.5-1.8,0.5
		C160.9,65.4,160,64.3,160,62.6z M161.1,62.1l2.5-0.1c0-0.1,0-0.2,0-0.3c0-0.6-0.3-1.1-1.1-1.1c-0.4,0-0.8,0.1-1,0.3
		C161.3,61.2,161.2,61.6,161.1,62.1z"/>
	<path class="st3" d="M165.8,62.6c0-1.7,0.9-2.9,2.6-2.9c1.3,0,2.1,0.8,2.1,2.1c0,0.2,0,0.5-0.1,0.8c0,0.2-0.2,0.2-0.3,0.2l-3.2,0.1
		c0.1,0.9,0.6,1.6,1.7,1.6c0.5,0,0.9-0.1,1.3-0.3c0.2-0.1,0.3,0,0.4,0.1l0.1,0.2c0.1,0.1,0,0.3-0.1,0.4c-0.4,0.3-1.1,0.5-1.8,0.5
		C166.7,65.4,165.8,64.3,165.8,62.6z M166.9,62.1l2.5-0.1c0-0.1,0-0.2,0-0.3c0-0.6-0.3-1.1-1.1-1.1c-0.4,0-0.8,0.1-1,0.3
		C167,61.2,166.9,61.6,166.9,62.1z"/>
	<path class="st3" d="M175.4,60c0.1,0.1,0.2,0.2,0.2,0.4c0,0.2,0,0.6-0.1,0.8c0,0.2-0.1,0.2-0.3,0.2h-0.3c-0.2,0-0.3-0.1-0.3-0.3
		c0-0.2,0-0.3-0.1-0.5c-0.2-0.1-0.5-0.1-0.8-0.1c-0.7,0-1.1,0.2-1.1,0.7c0,1.1,3,0.6,3,2.5c0,1-0.9,1.6-2.1,1.6
		c-0.7,0-1.4-0.2-1.9-0.5c-0.1-0.1-0.2-0.2-0.1-0.4l0.1-0.3c0.1-0.2,0.2-0.2,0.4-0.1c0.5,0.2,1,0.3,1.5,0.3c0.6,0,1-0.2,1-0.6
		c0-1-3-0.6-3-2.5c0-1,0.9-1.7,2.2-1.7C174.5,59.7,175,59.8,175.4,60z"/>
</g>
<g class="st2">
	<path class="st3" d="M127.8,85.8c0,0.3-0.1,0.5-0.2,0.7c-0.1,0.1-0.2,0.2-0.3,0.2H127c-0.2,0-0.3-0.1-0.3-0.3c0-0.4,0-0.7-0.1-1.1
		c-0.3-0.1-0.7-0.2-1.2-0.2c-0.5,0-1.1,0.1-1.5,0.4c-0.4,0.5-0.7,1.4-0.7,2.4c0,1.6,0.7,2.8,2.4,2.8c0.6,0,1.2-0.2,1.7-0.4
		c0.2-0.1,0.3,0,0.4,0.1l0.2,0.3c0.1,0.1,0.1,0.3-0.1,0.4c-0.5,0.4-1.3,0.6-2.3,0.6c-2.2,0-3.4-1.4-3.4-3.8c0-2.3,1.1-3.9,3.4-3.9
		C126.9,84.1,127.8,84.7,127.8,85.8z"/>
	<path class="st3" d="M130.4,90c0,0.3,0,0.5,0.1,0.7c0.1,0,0.3,0,0.5,0c0.2,0,0.3,0.1,0.3,0.3v0.3c0,0.1-0.1,0.3-0.2,0.3
		c-0.2,0.1-0.5,0.2-0.7,0.2c-0.6,0-1-0.4-1-1.1v-6.7c0-0.2,0.1-0.3,0.3-0.3l0.5-0.1c0.2,0,0.3,0.1,0.3,0.3V90z"/>
	<path class="st3" d="M133.6,84.5c0,0.3-0.1,0.5-0.2,0.6c-0.2,0.1-0.3,0.1-0.5,0.1c-0.4,0-0.7-0.3-0.7-0.7c0-0.1,0-0.2,0.1-0.4
		c0-0.1,0.1-0.2,0.3-0.2l0.5-0.1c0.1,0,0.3,0,0.3,0.1C133.5,84.1,133.6,84.3,133.6,84.5z M133.4,90c0,0.3,0,0.5,0.1,0.7
		c0.1,0,0.3,0,0.5,0c0.2,0,0.3,0.1,0.3,0.3v0.3c0,0.1,0,0.3-0.2,0.3c-0.2,0.1-0.5,0.2-0.7,0.2c-0.6,0-1-0.4-1-1.1v-4.2
		c0-0.2,0.1-0.3,0.3-0.3h0.5c0.2,0,0.3,0.1,0.3,0.3V90z"/>
	<path class="st3" d="M135,89c0-1.7,0.9-2.9,2.6-2.9c1.3,0,2.1,0.8,2.1,2.1c0,0.2,0,0.5-0.1,0.8c0,0.2-0.2,0.2-0.3,0.2l-3.2,0.1
		c0.1,0.9,0.6,1.6,1.7,1.6c0.5,0,0.9-0.1,1.3-0.3c0.2-0.1,0.3,0,0.4,0.1l0.1,0.2c0.1,0.1,0,0.3-0.1,0.4c-0.4,0.3-1.1,0.5-1.8,0.5
		C136,91.8,135,90.7,135,89z M136.1,88.5l2.5-0.1c0-0.1,0-0.2,0-0.3c0-0.6-0.3-1.1-1.1-1.1c-0.4,0-0.8,0.1-1,0.3
		C136.3,87.6,136.2,88,136.1,88.5z"/>
	<path class="st3" d="M142.1,86.7c0.5-0.4,1.2-0.7,1.9-0.7c1.2,0,2,0.7,2,1.9V90c0,0.3,0,0.5,0.1,0.7c0.1,0,0.3,0,0.5,0
		c0.2,0,0.3,0.1,0.3,0.3v0.3c0,0.1,0,0.3-0.2,0.3c-0.2,0.1-0.4,0.2-0.7,0.2c-0.6,0-1-0.4-1-1.1v-2.2c0-1-0.4-1.4-1.3-1.4
		c-0.4,0-0.9,0.1-1.4,0.3c0,0.2,0,0.4,0,0.6v3.4c0,0.2-0.1,0.3-0.3,0.3h-0.5c-0.2,0-0.3-0.1-0.3-0.3v-3.2c0-0.6-0.1-1-0.3-1.3
		c-0.1-0.1-0.1-0.3,0-0.4l0.3-0.3c0.1-0.1,0.2-0.1,0.4,0C141.8,86.3,142,86.5,142.1,86.7z"/>
	<path class="st3" d="M149.9,91.8c-1,0-1.8-0.6-1.8-2v-2.6h-0.7c-0.2,0-0.3-0.1-0.3-0.3v-0.2c0-0.2,0.1-0.3,0.3-0.3l0.7-0.1l0.1-1.1
		c0-0.2,0.1-0.3,0.3-0.3l0.4-0.1c0.2,0,0.3,0.1,0.3,0.2v1.2h1.7c0.2,0,0.3,0.1,0.3,0.3v0.4c0,0.2-0.1,0.3-0.3,0.3h-1.7v2.3
		c0,1,0.4,1.2,1,1.2c0.3,0,0.6-0.1,0.8-0.2c0.2-0.1,0.3,0,0.4,0.1l0.1,0.2c0.1,0.1,0.1,0.3-0.1,0.4C151,91.5,150.5,91.8,149.9,91.8z
		"/>
	<path class="st3" d="M156,86.4c0.1,0.1,0.2,0.2,0.2,0.4c0,0.2,0,0.6-0.1,0.8c0,0.2-0.1,0.2-0.3,0.2h-0.3c-0.2,0-0.3-0.1-0.3-0.3
		c0-0.2,0-0.3-0.1-0.5c-0.2-0.1-0.5-0.1-0.8-0.1c-0.7,0-1.1,0.2-1.1,0.7c0,1.1,3,0.6,3,2.5c0,1-0.9,1.6-2.1,1.6
		c-0.7,0-1.4-0.2-1.9-0.5c-0.1-0.1-0.2-0.2-0.1-0.4l0.1-0.3c0.1-0.2,0.2-0.2,0.4-0.1c0.5,0.2,1,0.3,1.5,0.3c0.6,0,1-0.2,1-0.6
		c0-1-3-0.6-3-2.5c0-1,0.9-1.7,2.2-1.7C155.1,86.1,155.6,86.2,156,86.4z"/>
	<path class="st3" d="M164.7,91.8c-0.5,0-0.8-0.2-0.9-0.6c-0.4,0.4-1,0.6-1.8,0.6c-1,0-1.7-0.6-1.7-1.5c0-1.1,1.1-1.8,3.1-1.8h0.3
		v-0.3c0-0.9-0.4-1.2-1.2-1.2c-0.3,0-0.6,0-0.8,0.1c0,0.1,0,0.3-0.1,0.5c0,0.2-0.1,0.3-0.3,0.3H161c-0.1,0-0.3,0-0.3-0.2
		c0-0.1-0.1-0.2-0.1-0.3c0-0.8,0.9-1.3,2.1-1.3c1.3,0,2.1,0.6,2.1,1.9V90c0,0.3,0,0.5,0.1,0.7c0.1,0,0.3,0,0.5,0
		c0.2,0,0.3,0.1,0.3,0.3v0.3c0,0.1,0,0.3-0.2,0.3C165.2,91.7,164.9,91.8,164.7,91.8z M162.3,90.8c0.5,0,1-0.2,1.4-0.4v-1.2
		c-0.1,0-0.2,0-0.3,0c-0.7,0-1.5,0.1-1.9,0.4c-0.1,0.2-0.1,0.3-0.1,0.5C161.4,90.6,161.8,90.8,162.3,90.8z"/>
	<path class="st3" d="M167.7,86.7c0.5-0.4,1.2-0.7,1.9-0.7c1.2,0,2,0.7,2,1.9V90c0,0.3,0,0.5,0.1,0.7c0.1,0,0.3,0,0.5,0
		c0.2,0,0.3,0.1,0.3,0.3v0.3c0,0.1,0,0.3-0.2,0.3c-0.2,0.1-0.4,0.2-0.7,0.2c-0.6,0-1-0.4-1-1.1v-2.2c0-1-0.4-1.4-1.3-1.4
		c-0.4,0-0.9,0.1-1.4,0.3c0,0.2,0,0.4,0,0.6v3.4c0,0.2-0.1,0.3-0.3,0.3h-0.5c-0.2,0-0.3-0.1-0.3-0.3v-3.2c0-0.6-0.1-1-0.3-1.3
		c-0.1-0.1-0.1-0.3,0-0.4l0.3-0.3c0.1-0.1,0.2-0.1,0.4,0C167.4,86.3,167.6,86.5,167.7,86.7z"/>
	<path class="st3" d="M178.1,91.8c-0.5,0-0.8-0.2-0.9-0.6c-0.4,0.4-1,0.6-1.7,0.6c-1.4,0-2.4-1-2.4-2.7c0-1.9,1-3,2.6-3
		c0.6,0,1,0.1,1.4,0.4v-2.5c0-0.2,0.1-0.3,0.3-0.3l0.5-0.1c0.2,0,0.3,0.1,0.3,0.3V90c0,0.3,0,0.5,0.1,0.7c0.1,0,0.3,0,0.5,0
		c0.2,0,0.3,0.1,0.3,0.3v0.3c0,0.1,0,0.3-0.2,0.3C178.6,91.7,178.3,91.8,178.1,91.8z M175.8,90.8c0.5,0,0.9-0.1,1.3-0.3v-3.2
		c-0.4-0.1-0.8-0.2-1.3-0.2c-0.4,0-0.9,0.1-1.2,0.3c-0.3,0.4-0.5,0.9-0.5,1.6C174.2,90.2,174.8,90.8,175.8,90.8z"/>
	<path class="st3" d="M184.1,89.4c0,1,0.4,1.3,1.3,1.3c0.5,0,1-0.1,1.4-0.3v-4c0-0.2,0.1-0.3,0.3-0.3h0.5c0.2,0,0.3,0.1,0.3,0.3V90
		c0,0.3,0,0.5,0.1,0.7c0.1,0,0.3,0,0.5,0c0.2,0,0.3,0.1,0.3,0.3v0.3c0,0.1,0,0.3-0.2,0.3c-0.2,0.1-0.4,0.2-0.7,0.2
		c-0.5,0-0.8-0.2-0.9-0.6c-0.5,0.4-1.1,0.6-1.8,0.6c-1.2,0-2-0.7-2-1.9v-3.4c0-0.2,0.1-0.3,0.3-0.3h0.5c0.2,0,0.3,0.1,0.3,0.3V89.4z
		"/>
	<path class="st3" d="M193.2,86.4c0.1,0.1,0.2,0.2,0.2,0.4c0,0.2,0,0.6-0.1,0.8c0,0.2-0.1,0.2-0.3,0.2h-0.3c-0.2,0-0.3-0.1-0.3-0.3
		c0-0.2,0-0.3-0.1-0.5c-0.2-0.1-0.5-0.1-0.8-0.1c-0.7,0-1.1,0.2-1.1,0.7c0,1.1,3,0.6,3,2.5c0,1-0.9,1.6-2.1,1.6
		c-0.7,0-1.4-0.2-1.9-0.5c-0.1-0.1-0.2-0.2-0.1-0.4l0.1-0.3c0.1-0.2,0.2-0.2,0.4-0.1c0.5,0.2,1,0.3,1.5,0.3c0.6,0,1-0.2,1-0.6
		c0-1-3-0.6-3-2.5c0-1,0.9-1.7,2.2-1.7C192.3,86.1,192.9,86.2,193.2,86.4z"/>
	<path class="st3" d="M194.6,89c0-1.7,0.9-2.9,2.6-2.9c1.3,0,2.1,0.8,2.1,2.1c0,0.2,0,0.5-0.1,0.8c0,0.2-0.2,0.2-0.3,0.2l-3.2,0.1
		c0.1,0.9,0.6,1.6,1.7,1.6c0.5,0,0.9-0.1,1.3-0.3c0.2-0.1,0.3,0,0.4,0.1l0.1,0.2c0.1,0.1,0,0.3-0.1,0.4c-0.4,0.3-1.1,0.5-1.8,0.5
		C195.5,91.8,194.6,90.7,194.6,89z M195.7,88.5l2.5-0.1c0-0.1,0-0.2,0-0.3c0-0.6-0.3-1.1-1.1-1.1c-0.4,0-0.8,0.1-1,0.3
		C195.8,87.6,195.7,88,195.7,88.5z"/>
</g>
<g class="st2">
	<path class="st3" d="M201.5,91.7H201c-0.2,0-0.3-0.1-0.3-0.3v-3.2c0-0.6-0.1-1-0.3-1.3c-0.1-0.1-0.1-0.3,0-0.4l0.3-0.3
		c0.1-0.1,0.2-0.1,0.3-0.1c0.3,0.2,0.5,0.4,0.6,0.8c0.7-0.6,1.2-0.9,1.7-0.9c0.2,0,0.3,0,0.4,0.1c0.1,0.1,0.2,0.2,0.1,0.3l-0.1,0.5
		c0,0.2-0.1,0.2-0.3,0.2h-0.7c-0.3,0.1-0.7,0.3-1,0.5c0,0.1,0,0.2,0,0.2v3.4C201.8,91.6,201.7,91.7,201.5,91.7z"/>
</g>
<g class="st2">
	<path class="st3" d="M208.1,86.4c0.1,0.1,0.2,0.2,0.2,0.4c0,0.2,0,0.6-0.1,0.8c0,0.2-0.1,0.2-0.3,0.2h-0.3c-0.2,0-0.3-0.1-0.3-0.3
		c0-0.2,0-0.3-0.1-0.5c-0.2-0.1-0.5-0.1-0.8-0.1c-0.7,0-1.1,0.2-1.1,0.7c0,1.1,3,0.6,3,2.5c0,1-0.9,1.6-2.1,1.6
		c-0.7,0-1.4-0.2-1.9-0.5c-0.1-0.1-0.2-0.2-0.1-0.4l0.1-0.3c0.1-0.2,0.2-0.2,0.4-0.1c0.5,0.2,1,0.3,1.5,0.3c0.6,0,1-0.2,1-0.6
		c0-1-3-0.6-3-2.5c0-1,0.9-1.7,2.2-1.7C207.2,86.1,207.8,86.2,208.1,86.4z"/>
</g>
<g class="st2">
	<path class="st3" d="M126.7,110.8c0.1,0.1,0.2,0.2,0.2,0.4c0,0.4,0,0.9-0.1,1.3c0,0.2-0.1,0.2-0.3,0.2h-0.3c-0.2,0-0.3-0.1-0.3-0.3
		c0-0.3,0-0.6-0.1-0.8c-0.2-0.1-0.6-0.1-0.9-0.1c-1,0-1.7,0.4-1.7,1.1c0,1.7,3.9,1,3.9,3.5c0,1.3-1.2,2.1-2.6,2.1
		c-0.9,0-1.7-0.3-2.3-0.7c-0.1-0.1-0.1-0.2-0.1-0.4l0.2-0.4c0.1-0.2,0.2-0.2,0.4-0.1c0.6,0.3,1.1,0.5,1.8,0.5c0.9,0,1.5-0.3,1.5-0.9
		c0-1.6-3.9-1-3.9-3.5c0-1.3,1.1-2.1,2.8-2.1C125.6,110.5,126.2,110.6,126.7,110.8z"/>
	<path class="st3" d="M129.8,115.8c0,1,0.4,1.3,1.3,1.3c0.5,0,1-0.1,1.4-0.3v-4c0-0.2,0.1-0.3,0.3-0.3h0.5c0.2,0,0.3,0.1,0.3,0.3
		v3.6c0,0.3,0,0.5,0.1,0.7c0.1,0,0.3,0,0.5,0c0.2,0,0.3,0.1,0.3,0.3v0.3c0,0.1,0,0.3-0.2,0.3c-0.2,0.1-0.4,0.2-0.7,0.2
		c-0.5,0-0.8-0.2-0.9-0.6c-0.5,0.4-1.1,0.6-1.8,0.6c-1.2,0-2-0.7-2-1.9v-3.4c0-0.2,0.1-0.3,0.3-0.3h0.5c0.2,0,0.3,0.1,0.3,0.3V115.8
		z"/>
	<path class="st3" d="M136.5,113.1c0.5-0.4,1.2-0.7,1.8-0.7c1.4,0,2.3,1,2.3,2.8c0,1.8-0.9,2.9-2.6,2.9c-0.5,0-1.1-0.1-1.4-0.3v2.4
		c0,0.2-0.1,0.3-0.3,0.3h-0.5c-0.2,0-0.3-0.1-0.3-0.3v-5.7c0-0.6-0.1-1-0.3-1.3c-0.1-0.1-0.1-0.3,0-0.4l0.3-0.3
		c0.1-0.1,0.2-0.1,0.4,0C136.3,112.7,136.4,112.9,136.5,113.1z M136.7,113.8c0,0.2,0,0.4,0,0.6v2.6c0.4,0.1,0.8,0.2,1.2,0.2
		c0.5,0,0.9-0.1,1.2-0.3c0.3-0.4,0.4-0.9,0.4-1.6c0-1.2-0.6-1.8-1.6-1.8C137.5,113.5,137.1,113.6,136.7,113.8z"/>
	<path class="st3" d="M143.2,113.1c0.5-0.4,1.2-0.7,1.8-0.7c1.4,0,2.3,1,2.3,2.8c0,1.8-0.9,2.9-2.6,2.9c-0.5,0-1.1-0.1-1.4-0.3v2.4
		c0,0.2-0.1,0.3-0.3,0.3h-0.5c-0.2,0-0.3-0.1-0.3-0.3v-5.7c0-0.6-0.1-1-0.3-1.3c-0.1-0.1-0.1-0.3,0-0.4l0.3-0.3
		c0.1-0.1,0.2-0.1,0.4,0C142.9,112.7,143.1,112.9,143.2,113.1z M143.3,113.8c0,0.2,0,0.4,0,0.6v2.6c0.4,0.1,0.8,0.2,1.2,0.2
		c0.5,0,0.9-0.1,1.2-0.3c0.3-0.4,0.4-0.9,0.4-1.6c0-1.2-0.6-1.8-1.6-1.8C144.2,113.5,143.7,113.6,143.3,113.8z"/>
	<path class="st3" d="M149.9,116.4c0,0.3,0,0.5,0.1,0.7c0.1,0,0.3,0,0.5,0c0.2,0,0.3,0.1,0.3,0.3v0.3c0,0.1-0.1,0.3-0.2,0.3
		c-0.2,0.1-0.5,0.2-0.7,0.2c-0.6,0-1-0.4-1-1.1v-6.7c0-0.2,0.1-0.3,0.3-0.3l0.5-0.1c0.2,0,0.3,0.1,0.3,0.3V116.4z"/>
	<path class="st3" d="M153.2,110.9c0,0.3-0.1,0.5-0.2,0.6c-0.2,0.1-0.3,0.1-0.5,0.1c-0.4,0-0.7-0.3-0.7-0.7c0-0.1,0-0.2,0.1-0.4
		c0-0.1,0.1-0.2,0.3-0.2l0.5-0.1c0.1,0,0.3,0,0.3,0.1C153.1,110.5,153.2,110.7,153.2,110.9z M153,116.4c0,0.3,0,0.5,0.1,0.7
		c0.1,0,0.3,0,0.5,0c0.2,0,0.3,0.1,0.3,0.3v0.3c0,0.1,0,0.3-0.2,0.3c-0.2,0.1-0.5,0.2-0.7,0.2c-0.6,0-1-0.4-1-1.1v-4.2
		c0-0.2,0.1-0.3,0.3-0.3h0.5c0.2,0,0.3,0.1,0.3,0.3V116.4z"/>
	<path class="st3" d="M154.7,115.4c0-1.7,0.9-2.9,2.6-2.9c1.3,0,2.1,0.8,2.1,2.1c0,0.2,0,0.5-0.1,0.8c0,0.2-0.2,0.2-0.3,0.2
		l-3.2,0.1c0.1,0.9,0.6,1.6,1.7,1.6c0.5,0,0.9-0.1,1.3-0.3c0.2-0.1,0.3,0,0.4,0.1l0.1,0.2c0.1,0.1,0,0.3-0.1,0.4
		c-0.4,0.3-1.1,0.5-1.8,0.5C155.7,118.2,154.7,117.1,154.7,115.4z M155.8,114.9l2.5-0.1c0-0.1,0-0.2,0-0.3c0-0.6-0.3-1.1-1.1-1.1
		c-0.4,0-0.8,0.1-1,0.3C156,114,155.9,114.4,155.8,114.9z"/>
</g>
<g class="st2">
	<path class="st3" d="M161.8,118.1h-0.5c-0.2,0-0.3-0.1-0.3-0.3v-3.2c0-0.6-0.1-1-0.3-1.3c-0.1-0.1-0.1-0.3,0-0.4l0.3-0.3
		c0.1-0.1,0.2-0.1,0.3-0.1c0.3,0.2,0.5,0.4,0.6,0.8c0.7-0.6,1.2-0.9,1.7-0.9c0.2,0,0.3,0,0.4,0.1c0.1,0.1,0.2,0.2,0.1,0.3l-0.1,0.5
		c0,0.2-0.1,0.2-0.3,0.2h-0.7c-0.3,0.1-0.7,0.3-1,0.5c0,0.1,0,0.2,0,0.2v3.4C162.1,118,162,118.1,161.8,118.1z"/>
</g>
<g class="st2">
	<path class="st3" d="M168.5,112.8c0.1,0.1,0.2,0.2,0.2,0.4c0,0.2,0,0.6-0.1,0.8c0,0.2-0.1,0.2-0.3,0.2h-0.3c-0.2,0-0.3-0.1-0.3-0.3
		c0-0.2,0-0.3-0.1-0.5c-0.2-0.1-0.5-0.1-0.8-0.1c-0.7,0-1.1,0.2-1.1,0.7c0,1.1,3,0.6,3,2.5c0,1-0.9,1.6-2.1,1.6
		c-0.7,0-1.4-0.2-1.9-0.5c-0.1-0.1-0.2-0.2-0.1-0.4l0.1-0.3c0.1-0.2,0.2-0.2,0.4-0.1c0.5,0.2,1,0.3,1.5,0.3c0.6,0,1-0.2,1-0.6
		c0-1-3-0.6-3-2.5c0-1,0.9-1.7,2.2-1.7C167.6,112.5,168.1,112.6,168.5,112.8z"/>
</g>
<g class="st2">
	<path class="st3" d="M123.7,144.2c0,0.2-0.1,0.3-0.3,0.3h-0.5c-0.2,0-0.3-0.1-0.3-0.3v-6.9c0-0.2,0.1-0.3,0.3-0.3h0.5
		c0.2,0,0.3,0.1,0.3,0.3V144.2z"/>
	<path class="st3" d="M126.7,139.5c0.5-0.4,1.2-0.7,1.9-0.7c1.2,0,2,0.7,2,1.9v2.1c0,0.3,0,0.5,0.1,0.7c0.1,0,0.3,0,0.5,0
		c0.2,0,0.3,0.1,0.3,0.3v0.3c0,0.1,0,0.3-0.2,0.3c-0.2,0.1-0.4,0.2-0.7,0.2c-0.6,0-1-0.4-1-1.1v-2.2c0-1-0.4-1.4-1.3-1.4
		c-0.4,0-0.9,0.1-1.4,0.3c0,0.2,0,0.4,0,0.6v3.4c0,0.2-0.1,0.3-0.3,0.3h-0.5c-0.2,0-0.3-0.1-0.3-0.3V141c0-0.6-0.1-1-0.3-1.3
		c-0.1-0.1-0.1-0.3,0-0.4l0.3-0.3c0.1-0.1,0.2-0.1,0.4,0C126.4,139.1,126.6,139.3,126.7,139.5z"/>
	<path class="st3" d="M134.6,144.5H134c-0.2,0-0.3-0.1-0.3-0.2l-1.8-4.9c-0.1-0.2,0-0.3,0.2-0.3l0.5-0.1c0.2,0,0.3,0,0.3,0.2
		l1.6,4.2l0.6-1.2c0.3-0.6,0.5-1.1,0.7-1.7c0-0.5,0-0.8-0.1-1.2c0-0.2,0.1-0.3,0.2-0.3l0.5-0.1c0.1,0,0.3,0,0.4,0.1
		c0.1,0.2,0.2,0.4,0.2,0.6c0,0.6-0.4,1.6-1,2.7l-1,1.9C134.9,144.4,134.8,144.5,134.6,144.5z"/>
	<path class="st3" d="M137.7,141.8c0-1.7,0.9-2.9,2.6-2.9c1.3,0,2.1,0.8,2.1,2.1c0,0.2,0,0.5-0.1,0.8c0,0.2-0.2,0.2-0.3,0.2
		l-3.2,0.1c0.1,0.9,0.6,1.6,1.7,1.6c0.5,0,0.9-0.1,1.3-0.3c0.2-0.1,0.3,0,0.4,0.1l0.1,0.2c0.1,0.1,0,0.3-0.1,0.4
		c-0.4,0.3-1.1,0.5-1.8,0.5C138.7,144.6,137.7,143.5,137.7,141.8z M138.8,141.3l2.5-0.1c0-0.1,0-0.2,0-0.3c0-0.6-0.3-1.1-1.1-1.1
		c-0.4,0-0.8,0.1-1,0.3C139,140.4,138.9,140.8,138.8,141.3z"/>
	<path class="st3" d="M147.3,139.2c0.1,0.1,0.2,0.2,0.2,0.4c0,0.2,0,0.6-0.1,0.8c0,0.2-0.1,0.2-0.3,0.2h-0.3c-0.2,0-0.3-0.1-0.3-0.3
		c0-0.2,0-0.3-0.1-0.5c-0.2-0.1-0.5-0.1-0.8-0.1c-0.7,0-1.1,0.2-1.1,0.7c0,1.1,3,0.6,3,2.5c0,1-0.9,1.6-2.1,1.6
		c-0.7,0-1.4-0.2-1.9-0.5c-0.1-0.1-0.2-0.2-0.1-0.4l0.1-0.3c0.1-0.2,0.2-0.2,0.4-0.1c0.5,0.2,1,0.3,1.5,0.3c0.6,0,1-0.2,1-0.6
		c0-1-3-0.6-3-2.5c0-1,0.9-1.7,2.2-1.7C146.4,138.9,147,139,147.3,139.2z"/>
</g>
<g class="st2">
	<path class="st3" d="M151,144.6c-1,0-1.8-0.6-1.8-2V140h-0.7c-0.2,0-0.3-0.1-0.3-0.3v-0.2c0-0.2,0.1-0.3,0.3-0.3l0.7-0.1l0.1-1.1
		c0-0.2,0.1-0.3,0.3-0.3l0.4-0.1c0.2,0,0.3,0.1,0.3,0.2v1.2h1.7c0.2,0,0.3,0.1,0.3,0.3v0.4c0,0.2-0.1,0.3-0.3,0.3h-1.7v2.3
		c0,1,0.4,1.2,1,1.2c0.3,0,0.6-0.1,0.8-0.2c0.2-0.1,0.3,0,0.4,0.1l0.1,0.2c0.1,0.1,0.1,0.3-0.1,0.4
		C152.1,144.3,151.6,144.6,151,144.6z"/>
</g>
<g class="st2">
	<path class="st3" d="M158.5,141.7c0,1.8-0.9,2.9-2.6,2.9c-1.7,0-2.6-1.2-2.6-2.9c0-1.7,0.9-2.8,2.6-2.8
		C157.5,138.9,158.5,140,158.5,141.7z M154.7,140.1c-0.3,0.3-0.4,0.9-0.4,1.6c0,1.1,0.4,1.9,1.6,1.9c0.4,0,0.8-0.1,1.1-0.3
		c0.3-0.3,0.4-0.9,0.4-1.6c0-1.1-0.4-1.9-1.6-1.9C155.4,139.9,155,139.9,154.7,140.1z"/>
</g>
<g class="st2">
	<path class="st3" d="M160.7,144.5h-0.5c-0.2,0-0.3-0.1-0.3-0.3V141c0-0.6-0.1-1-0.3-1.3c-0.1-0.1-0.1-0.3,0-0.4l0.3-0.3
		c0.1-0.1,0.2-0.1,0.3-0.1c0.3,0.2,0.5,0.4,0.6,0.8c0.7-0.6,1.2-0.9,1.7-0.9c0.2,0,0.3,0,0.4,0.1c0.1,0.1,0.2,0.2,0.1,0.3l-0.1,0.5
		c0,0.2-0.1,0.2-0.3,0.2H162c-0.3,0.1-0.7,0.3-1,0.5c0,0.1,0,0.2,0,0.2v3.4C161,144.4,160.9,144.5,160.7,144.5z"/>
</g>
<g class="st2">
	<path class="st3" d="M167.3,139.2c0.1,0.1,0.2,0.2,0.2,0.4c0,0.2,0,0.6-0.1,0.8c0,0.2-0.1,0.2-0.3,0.2h-0.3c-0.2,0-0.3-0.1-0.3-0.3
		c0-0.2,0-0.3-0.1-0.5c-0.2-0.1-0.5-0.1-0.8-0.1c-0.7,0-1.1,0.2-1.1,0.7c0,1.1,3,0.6,3,2.5c0,1-0.9,1.6-2.1,1.6
		c-0.7,0-1.4-0.2-1.9-0.5c-0.1-0.1-0.2-0.2-0.1-0.4l0.1-0.3c0.1-0.2,0.2-0.2,0.4-0.1c0.5,0.2,1,0.3,1.5,0.3c0.6,0,1-0.2,1-0.6
		c0-1-3-0.6-3-2.5c0-1,0.9-1.7,2.2-1.7C166.4,138.9,167,139,167.3,139.2z"/>
	<path class="st3" d="M176,144.6c-0.5,0-0.8-0.2-0.9-0.6c-0.4,0.4-1,0.6-1.8,0.6c-1,0-1.7-0.6-1.7-1.5c0-1.1,1.1-1.8,3.1-1.8h0.3
		V141c0-0.9-0.4-1.2-1.2-1.2c-0.3,0-0.6,0-0.8,0.1c0,0.1,0,0.3-0.1,0.5c0,0.2-0.1,0.3-0.3,0.3h-0.4c-0.1,0-0.3,0-0.3-0.2
		c0-0.1-0.1-0.2-0.1-0.3c0-0.8,0.9-1.3,2.1-1.3c1.3,0,2.1,0.6,2.1,1.9v2.1c0,0.3,0,0.5,0.1,0.7c0.1,0,0.3,0,0.5,0
		c0.2,0,0.3,0.1,0.3,0.3v0.3c0,0.1,0,0.3-0.2,0.3C176.5,144.5,176.3,144.6,176,144.6z M173.6,143.6c0.5,0,1-0.2,1.4-0.4V142
		c-0.1,0-0.2,0-0.3,0c-0.7,0-1.5,0.1-1.9,0.4c-0.1,0.2-0.1,0.3-0.1,0.5C172.7,143.4,173.1,143.6,173.6,143.6z"/>
	<path class="st3" d="M179,139.5c0.5-0.4,1.2-0.7,1.9-0.7c1.2,0,2,0.7,2,1.9v2.1c0,0.3,0,0.5,0.1,0.7c0.1,0,0.3,0,0.5,0
		c0.2,0,0.3,0.1,0.3,0.3v0.3c0,0.1,0,0.3-0.2,0.3c-0.2,0.1-0.4,0.2-0.7,0.2c-0.6,0-1-0.4-1-1.1v-2.2c0-1-0.4-1.4-1.3-1.4
		c-0.4,0-0.9,0.1-1.4,0.3c0,0.2,0,0.4,0,0.6v3.4c0,0.2-0.1,0.3-0.3,0.3h-0.5c-0.2,0-0.3-0.1-0.3-0.3V141c0-0.6-0.1-1-0.3-1.3
		c-0.1-0.1-0.1-0.3,0-0.4l0.3-0.3c0.1-0.1,0.2-0.1,0.4,0C178.7,139.1,178.9,139.3,179,139.5z"/>
	<path class="st3" d="M189.4,144.6c-0.5,0-0.8-0.2-0.9-0.6c-0.4,0.4-1,0.6-1.7,0.6c-1.4,0-2.4-1-2.4-2.7c0-1.9,1-3,2.6-3
		c0.6,0,1,0.1,1.4,0.4v-2.5c0-0.2,0.1-0.3,0.3-0.3l0.5-0.1c0.2,0,0.3,0.1,0.3,0.3v6.2c0,0.3,0,0.5,0.1,0.7c0.1,0,0.3,0,0.5,0
		c0.2,0,0.3,0.1,0.3,0.3v0.3c0,0.1,0,0.3-0.2,0.3C189.9,144.5,189.7,144.6,189.4,144.6z M187.1,143.6c0.5,0,0.9-0.1,1.3-0.3v-3.2
		c-0.4-0.1-0.8-0.2-1.3-0.2c-0.4,0-0.9,0.1-1.2,0.3c-0.3,0.4-0.5,0.9-0.5,1.6C185.5,143,186.1,143.6,187.1,143.6z"/>
	<path class="st3" d="M195.6,139.1h2l0.8-0.1c0.2,0,0.3,0.1,0.3,0.3v3.6c0,0.3,0,0.5,0.1,0.7c0.1,0,0.3,0,0.5,0
		c0.2,0,0.3,0.1,0.3,0.3v0.3c0,0.1,0,0.3-0.2,0.3c-0.2,0.1-0.4,0.2-0.7,0.2c-0.6,0-1-0.4-1-1.1V140h-2v4.2c0,0.2-0.1,0.3-0.3,0.3
		h-0.5c-0.2,0-0.3-0.1-0.3-0.3V140h-0.7c-0.2,0-0.3-0.1-0.3-0.3v-0.2c0-0.2,0.1-0.3,0.3-0.3l0.7-0.1c0-0.4,0-0.6,0-0.9
		c0-1.2,0.9-1.8,2.4-1.8c0.4,0,1,0,1.7,0.2c0.2,0,0.2,0.2,0.2,0.3l-0.1,0.4c0,0.2-0.2,0.3-0.3,0.2c-1-0.2-1.8-0.3-2.4-0.3
		c-0.3,0.2-0.4,0.6-0.4,1.1C195.6,138.5,195.6,138.8,195.6,139.1z"/>
	<path class="st3" d="M201.7,139.5c0.5-0.4,1.2-0.7,1.9-0.7c1.2,0,2,0.7,2,1.9v2.1c0,0.3,0,0.5,0.1,0.7c0.1,0,0.3,0,0.5,0
		c0.2,0,0.3,0.1,0.3,0.3v0.3c0,0.1,0,0.3-0.2,0.3c-0.2,0.1-0.4,0.2-0.7,0.2c-0.6,0-1-0.4-1-1.1v-2.2c0-1-0.4-1.4-1.3-1.4
		c-0.4,0-0.9,0.1-1.4,0.3c0,0.2,0,0.4,0,0.6v3.4c0,0.2-0.1,0.3-0.3,0.3h-0.5c-0.2,0-0.3-0.1-0.3-0.3V141c0-0.6-0.1-1-0.3-1.3
		c-0.1-0.1-0.1-0.3,0-0.4l0.3-0.3c0.1-0.1,0.2-0.1,0.4,0C201.4,139.1,201.6,139.3,201.7,139.5z"/>
	<path class="st3" d="M211.5,144.6c-0.5,0-0.8-0.2-0.9-0.6c-0.4,0.4-1,0.6-1.8,0.6c-1,0-1.7-0.6-1.7-1.5c0-1.1,1.1-1.8,3.1-1.8h0.3
		V141c0-0.9-0.4-1.2-1.2-1.2c-0.3,0-0.6,0-0.8,0.1c0,0.1,0,0.3-0.1,0.5c0,0.2-0.1,0.3-0.3,0.3h-0.4c-0.1,0-0.3,0-0.3-0.2
		c0-0.1-0.1-0.2-0.1-0.3c0-0.8,0.9-1.3,2.1-1.3c1.3,0,2.1,0.6,2.1,1.9v2.1c0,0.3,0,0.5,0.1,0.7c0.1,0,0.3,0,0.5,0
		c0.2,0,0.3,0.1,0.3,0.3v0.3c0,0.1,0,0.3-0.2,0.3C212,144.5,211.8,144.6,211.5,144.6z M209.2,143.6c0.5,0,1-0.2,1.4-0.4V142
		c-0.1,0-0.2,0-0.3,0c-0.7,0-1.5,0.1-1.9,0.4c-0.1,0.2-0.1,0.3-0.1,0.5C208.2,143.4,208.6,143.6,209.2,143.6z"/>
	<path class="st3" d="M214.5,139.5c0.5-0.4,1.2-0.7,1.9-0.7c1.2,0,2,0.7,2,1.9v2.1c0,0.3,0,0.5,0.1,0.7c0.1,0,0.3,0,0.5,0
		c0.2,0,0.3,0.1,0.3,0.3v0.3c0,0.1,0,0.3-0.2,0.3c-0.2,0.1-0.4,0.2-0.7,0.2c-0.6,0-1-0.4-1-1.1v-2.2c0-1-0.4-1.4-1.3-1.4
		c-0.4,0-0.9,0.1-1.4,0.3c0,0.2,0,0.4,0,0.6v3.4c0,0.2-0.1,0.3-0.3,0.3h-0.5c-0.2,0-0.3-0.1-0.3-0.3V141c0-0.6-0.1-1-0.3-1.3
		c-0.1-0.1-0.1-0.3,0-0.4l0.3-0.3c0.1-0.1,0.2-0.1,0.4,0C214.2,139.1,214.4,139.3,214.5,139.5z"/>
	<path class="st3" d="M224.5,140.3c0,0.2,0,0.3-0.1,0.5c-0.1,0.1-0.2,0.2-0.3,0.2h-0.4c-0.2,0-0.3-0.1-0.3-0.3c0-0.2,0-0.5-0.1-0.7
		c-0.2-0.1-0.5-0.1-0.8-0.1c-0.4,0-0.8,0.1-1.1,0.3c-0.3,0.4-0.4,0.9-0.4,1.6c0,1.1,0.5,1.9,1.7,1.9c0.5,0,0.9-0.1,1.3-0.3
		c0.2-0.1,0.3,0,0.4,0.1l0.1,0.2c0.1,0.1,0,0.3-0.1,0.4c-0.4,0.3-1.1,0.5-1.8,0.5c-1.7,0-2.6-1.1-2.6-2.8c0-1.7,0.9-2.8,2.6-2.8
		C223.7,138.9,224.5,139.5,224.5,140.3z"/>
	<path class="st3" d="M227.1,137.3c0,0.3-0.1,0.5-0.2,0.6c-0.2,0.1-0.3,0.1-0.5,0.1c-0.4,0-0.7-0.3-0.7-0.7c0-0.1,0-0.2,0.1-0.4
		c0-0.1,0.1-0.2,0.3-0.2l0.5-0.1c0.1,0,0.3,0,0.3,0.1C227,136.9,227.1,137.1,227.1,137.3z M226.9,142.8c0,0.3,0,0.5,0.1,0.7
		c0.1,0,0.3,0,0.5,0c0.2,0,0.3,0.1,0.3,0.3v0.3c0,0.1,0,0.3-0.2,0.3c-0.2,0.1-0.5,0.2-0.7,0.2c-0.6,0-1-0.4-1-1.1v-4.2
		c0-0.2,0.1-0.3,0.3-0.3h0.5c0.2,0,0.3,0.1,0.3,0.3V142.8z"/>
	<path class="st3" d="M232.9,144.6c-0.5,0-0.8-0.2-0.9-0.6c-0.4,0.4-1,0.6-1.8,0.6c-1,0-1.7-0.6-1.7-1.5c0-1.1,1.1-1.8,3.1-1.8h0.3
		V141c0-0.9-0.4-1.2-1.2-1.2c-0.3,0-0.6,0-0.8,0.1c0,0.1,0,0.3-0.1,0.5c0,0.2-0.1,0.3-0.3,0.3h-0.4c-0.1,0-0.3,0-0.3-0.2
		c0-0.1-0.1-0.2-0.1-0.3c0-0.8,0.9-1.3,2.1-1.3c1.3,0,2.1,0.6,2.1,1.9v2.1c0,0.3,0,0.5,0.1,0.7c0.1,0,0.3,0,0.5,0
		c0.2,0,0.3,0.1,0.3,0.3v0.3c0,0.1,0,0.3-0.2,0.3C233.4,144.5,233.2,144.6,232.9,144.6z M230.6,143.6c0.5,0,1-0.2,1.4-0.4V142
		c-0.1,0-0.2,0-0.3,0c-0.7,0-1.5,0.1-1.9,0.4c-0.1,0.2-0.1,0.3-0.1,0.5C229.6,143.4,230,143.6,230.6,143.6z"/>
	<path class="st3" d="M236,142.8c0,0.3,0,0.5,0.1,0.7c0.1,0,0.3,0,0.5,0c0.2,0,0.3,0.1,0.3,0.3v0.3c0,0.1-0.1,0.3-0.2,0.3
		c-0.2,0.1-0.5,0.2-0.7,0.2c-0.6,0-1-0.4-1-1.1v-6.7c0-0.2,0.1-0.3,0.3-0.3l0.5-0.1c0.2,0,0.3,0.1,0.3,0.3V142.8z"/>
</g>
<g class="st2">
	<path class="st3" d="M126.5,153.5c0,0.2,0,0.3-0.1,0.5c-0.1,0.1-0.2,0.2-0.3,0.2h-0.4c-0.2,0-0.3-0.1-0.3-0.3c0-0.2,0-0.5-0.1-0.7
		c-0.2-0.1-0.5-0.1-0.8-0.1c-0.4,0-0.8,0.1-1.1,0.3c-0.3,0.4-0.4,0.9-0.4,1.6c0,1.1,0.5,1.9,1.7,1.9c0.5,0,0.9-0.1,1.3-0.3
		c0.2-0.1,0.3,0,0.4,0.1l0.1,0.2c0.1,0.1,0,0.3-0.1,0.4c-0.4,0.3-1.1,0.5-1.8,0.5c-1.7,0-2.6-1.1-2.6-2.8c0-1.7,0.9-2.8,2.6-2.8
		C125.7,152.1,126.5,152.7,126.5,153.5z"/>
	<path class="st3" d="M132.7,154.9c0,1.8-0.9,2.9-2.6,2.9c-1.7,0-2.6-1.2-2.6-2.9c0-1.7,0.9-2.8,2.6-2.8
		C131.8,152.1,132.7,153.2,132.7,154.9z M129,153.3c-0.3,0.3-0.4,0.9-0.4,1.6c0,1.1,0.4,1.9,1.6,1.9c0.4,0,0.8-0.1,1.1-0.3
		c0.3-0.3,0.4-0.9,0.4-1.6c0-1.1-0.4-1.9-1.6-1.9C129.7,153.1,129.3,153.1,129,153.3z"/>
	<path class="st3" d="M135.1,152.7c0.5-0.4,1.1-0.7,1.8-0.7c0.7,0,1.3,0.2,1.7,0.7c0.5-0.4,1.2-0.7,1.9-0.7c1.2,0,2,0.7,2,1.9v2.1
		c0,0.3,0,0.5,0.1,0.7c0.1,0,0.3,0,0.5,0c0.2,0,0.3,0.1,0.3,0.3v0.3c0,0.1,0,0.3-0.2,0.3c-0.2,0.1-0.5,0.2-0.7,0.2
		c-0.6,0-1-0.4-1-1.1v-2.2c0-1-0.4-1.3-1.2-1.3c-0.5,0-0.8,0.1-1.3,0.3c0,0.2,0,0.4,0,0.6v3.4c0,0.2-0.1,0.3-0.3,0.3h-0.5
		c-0.2,0-0.3-0.1-0.3-0.3v-3.1c0-0.9-0.4-1.3-1.2-1.3c-0.5,0-0.9,0.1-1.4,0.3c0,0.2,0,0.4,0,0.6v3.4c0,0.2-0.1,0.3-0.3,0.3h-0.5
		c-0.2,0-0.3-0.1-0.3-0.3v-3.2c0-0.6-0.1-1-0.3-1.3c-0.1-0.1-0.1-0.3,0-0.4l0.3-0.3c0.1-0.1,0.2-0.1,0.4,0
		C134.8,152.3,135,152.5,135.1,152.7z"/>
	<path class="st3" d="M145.3,152.7c0.5-0.4,1.1-0.7,1.8-0.7c0.7,0,1.3,0.2,1.7,0.7c0.5-0.4,1.2-0.7,1.9-0.7c1.2,0,2,0.7,2,1.9v2.1
		c0,0.3,0,0.5,0.1,0.7c0.1,0,0.3,0,0.5,0c0.2,0,0.3,0.1,0.3,0.3v0.3c0,0.1,0,0.3-0.2,0.3c-0.2,0.1-0.5,0.2-0.7,0.2
		c-0.6,0-1-0.4-1-1.1v-2.2c0-1-0.4-1.3-1.2-1.3c-0.5,0-0.8,0.1-1.3,0.3c0,0.2,0,0.4,0,0.6v3.4c0,0.2-0.1,0.3-0.3,0.3h-0.5
		c-0.2,0-0.3-0.1-0.3-0.3v-3.1c0-0.9-0.4-1.3-1.2-1.3c-0.5,0-0.9,0.1-1.4,0.3c0,0.2,0,0.4,0,0.6v3.4c0,0.2-0.1,0.3-0.3,0.3h-0.5
		c-0.2,0-0.3-0.1-0.3-0.3v-3.2c0-0.6-0.1-1-0.3-1.3c-0.1-0.1-0.1-0.3,0-0.4l0.3-0.3c0.1-0.1,0.2-0.1,0.4,0
		C145.1,152.3,145.2,152.5,145.3,152.7z"/>
	<path class="st3" d="M155.6,155.4c0,1,0.4,1.3,1.3,1.3c0.5,0,1-0.1,1.4-0.3v-4c0-0.2,0.1-0.3,0.3-0.3h0.5c0.2,0,0.3,0.1,0.3,0.3
		v3.6c0,0.3,0,0.5,0.1,0.7c0.1,0,0.3,0,0.5,0c0.2,0,0.3,0.1,0.3,0.3v0.3c0,0.1,0,0.3-0.2,0.3c-0.2,0.1-0.4,0.2-0.7,0.2
		c-0.5,0-0.8-0.2-0.9-0.6c-0.5,0.4-1.1,0.6-1.8,0.6c-1.2,0-2-0.7-2-1.9v-3.4c0-0.2,0.1-0.3,0.3-0.3h0.5c0.2,0,0.3,0.1,0.3,0.3V155.4
		z"/>
	<path class="st3" d="M162.2,152.7c0.5-0.4,1.2-0.7,1.9-0.7c1.2,0,2,0.7,2,1.9v2.1c0,0.3,0,0.5,0.1,0.7c0.1,0,0.3,0,0.5,0
		c0.2,0,0.3,0.1,0.3,0.3v0.3c0,0.1,0,0.3-0.2,0.3c-0.2,0.1-0.4,0.2-0.7,0.2c-0.6,0-1-0.4-1-1.1v-2.2c0-1-0.4-1.4-1.3-1.4
		c-0.4,0-0.9,0.1-1.4,0.3c0,0.2,0,0.4,0,0.6v3.4c0,0.2-0.1,0.3-0.3,0.3h-0.5c-0.2,0-0.3-0.1-0.3-0.3v-3.2c0-0.6-0.1-1-0.3-1.3
		c-0.1-0.1-0.1-0.3,0-0.4l0.3-0.3c0.1-0.1,0.2-0.1,0.4,0C161.9,152.3,162.1,152.5,162.2,152.7z"/>
	<path class="st3" d="M169.3,150.5c0,0.3-0.1,0.5-0.2,0.6c-0.2,0.1-0.3,0.1-0.5,0.1c-0.4,0-0.7-0.3-0.7-0.7c0-0.1,0-0.2,0.1-0.4
		c0-0.1,0.1-0.2,0.3-0.2l0.5-0.1c0.1,0,0.3,0,0.3,0.1C169.2,150.1,169.3,150.3,169.3,150.5z M169.1,156c0,0.3,0,0.5,0.1,0.7
		c0.1,0,0.3,0,0.5,0c0.2,0,0.3,0.1,0.3,0.3v0.3c0,0.1,0,0.3-0.2,0.3c-0.2,0.1-0.5,0.2-0.7,0.2c-0.6,0-1-0.4-1-1.1v-4.2
		c0-0.2,0.1-0.3,0.3-0.3h0.5c0.2,0,0.3,0.1,0.3,0.3V156z"/>
	<path class="st3" d="M173,157.8c-1,0-1.8-0.6-1.8-2v-2.6h-0.7c-0.2,0-0.3-0.1-0.3-0.3v-0.2c0-0.2,0.1-0.3,0.3-0.3l0.7-0.1l0.1-1.1
		c0-0.2,0.1-0.3,0.3-0.3l0.4-0.1c0.2,0,0.3,0.1,0.3,0.2v1.2h1.7c0.2,0,0.3,0.1,0.3,0.3v0.4c0,0.2-0.1,0.3-0.3,0.3h-1.7v2.3
		c0,1,0.4,1.2,1,1.2c0.3,0,0.6-0.1,0.8-0.2c0.2-0.1,0.3,0,0.4,0.1l0.1,0.2c0.1,0.1,0.1,0.3-0.1,0.4
		C174.1,157.5,173.7,157.8,173,157.8z"/>
	<path class="st3" d="M175.1,160.1l-0.1-0.2c-0.1-0.2-0.1-0.3,0.1-0.4c0.4-0.3,0.8-0.6,1.1-0.9c0.1-0.2,0.3-0.6,0.5-1l-1.9-5.1
		c-0.1-0.2,0-0.3,0.2-0.3l0.6-0.1c0.2,0,0.3,0,0.3,0.2l1.6,4.2l0.5-0.9c0.4-0.8,0.7-1.4,0.9-2c0-0.5,0-0.8-0.1-1.2
		c0-0.2,0.1-0.3,0.2-0.3l0.5-0.1c0.1,0,0.3,0,0.4,0.1c0.1,0.2,0.2,0.4,0.2,0.6c0,0.6-0.4,1.6-1,2.7l-1.6,3c-0.4,0.9-0.9,1.2-1.9,1.6
		C175.3,160.3,175.2,160.2,175.1,160.1z"/>
</g>
<g class="st2">
	<path class="st3" d="M122.4,184.1h-0.6c-0.2,0-0.3-0.1-0.2-0.3l2.7-6.9c0.1-0.2,0.1-0.2,0.3-0.2l0.8-0.1c0.2,0,0.3,0.1,0.3,0.2
		l2.7,7c0.1,0.2,0,0.3-0.2,0.3h-0.6c-0.2,0-0.3-0.1-0.3-0.2l-0.8-2h-3l-0.8,2C122.6,184,122.5,184.1,122.4,184.1z M126.1,180.9
		L125,178l-1.1,2.9H126.1z"/>
	<path class="st3" d="M130.5,181.8c0,1,0.4,1.3,1.3,1.3c0.5,0,1-0.1,1.4-0.3v-4c0-0.2,0.1-0.3,0.3-0.3h0.5c0.2,0,0.3,0.1,0.3,0.3
		v3.6c0,0.3,0,0.5,0.1,0.7c0.1,0,0.3,0,0.5,0c0.2,0,0.3,0.1,0.3,0.3v0.3c0,0.1,0,0.3-0.2,0.3c-0.2,0.1-0.4,0.2-0.7,0.2
		c-0.5,0-0.8-0.2-0.9-0.6c-0.5,0.4-1.1,0.6-1.8,0.6c-1.2,0-2-0.7-2-1.9v-3.4c0-0.2,0.1-0.3,0.3-0.3h0.5c0.2,0,0.3,0.1,0.3,0.3V181.8
		z"/>
	<path class="st3" d="M138.1,184.2c-1,0-1.8-0.6-1.8-2v-2.6h-0.7c-0.2,0-0.3-0.1-0.3-0.3v-0.2c0-0.2,0.1-0.3,0.3-0.3l0.7-0.1
		l0.1-1.1c0-0.2,0.1-0.3,0.3-0.3l0.4-0.1c0.2,0,0.3,0.1,0.3,0.2v1.2h1.7c0.2,0,0.3,0.1,0.3,0.3v0.4c0,0.2-0.1,0.3-0.3,0.3h-1.7v2.3
		c0,1,0.4,1.2,1,1.2c0.3,0,0.6-0.1,0.8-0.2c0.2-0.1,0.3,0,0.4,0.1l0.1,0.2c0.1,0.1,0.1,0.3-0.1,0.4
		C139.2,183.9,138.8,184.2,138.1,184.2z"/>
	<path class="st3" d="M141.8,179c0.5-0.3,1-0.5,1.7-0.5c1.2,0,2,0.7,2,1.9v2.1c0,0.3,0,0.5,0.1,0.7c0.1,0,0.3,0,0.5,0
		c0.2,0,0.3,0.1,0.3,0.3v0.3c0,0.1,0,0.3-0.2,0.3c-0.2,0.1-0.4,0.2-0.7,0.2c-0.6,0-1-0.4-1-1.1v-2.2c0-1-0.4-1.4-1.3-1.4
		c-0.4,0-0.9,0.1-1.3,0.3v4c0,0.2-0.1,0.3-0.3,0.3H141c-0.2,0-0.3-0.1-0.3-0.3v-7.4c0-0.2,0.1-0.3,0.3-0.3l0.5-0.1
		c0.2,0,0.3,0.1,0.3,0.3V179z"/>
	<path class="st3" d="M152.3,181.3c0,1.8-0.9,2.9-2.6,2.9c-1.7,0-2.6-1.2-2.6-2.9c0-1.7,0.9-2.8,2.6-2.8
		C151.4,178.5,152.3,179.6,152.3,181.3z M148.6,179.7c-0.3,0.3-0.4,0.9-0.4,1.6c0,1.1,0.4,1.9,1.6,1.9c0.4,0,0.8-0.1,1.1-0.3
		c0.3-0.3,0.4-0.9,0.4-1.6c0-1.1-0.4-1.9-1.6-1.9C149.3,179.5,148.9,179.5,148.6,179.7z"/>
</g>
<g class="st2">
	<path class="st3" d="M154.6,184.1h-0.5c-0.2,0-0.3-0.1-0.3-0.3v-3.2c0-0.6-0.1-1-0.3-1.3c-0.1-0.1-0.1-0.3,0-0.4l0.3-0.3
		c0.1-0.1,0.2-0.1,0.3-0.1c0.3,0.2,0.5,0.4,0.6,0.8c0.7-0.6,1.2-0.9,1.7-0.9c0.2,0,0.3,0,0.4,0.1c0.1,0.1,0.2,0.2,0.1,0.3l-0.1,0.5
		c0,0.2-0.1,0.2-0.3,0.2h-0.7c-0.3,0.1-0.7,0.3-1,0.5c0,0.1,0,0.2,0,0.2v3.4C154.9,184,154.8,184.1,154.6,184.1z"/>
</g>
<g class="st2">
	<path class="st3" d="M159.1,176.9c0,0.3-0.1,0.5-0.2,0.6c-0.2,0.1-0.3,0.1-0.5,0.1c-0.4,0-0.7-0.3-0.7-0.7c0-0.1,0-0.2,0.1-0.4
		c0-0.1,0.1-0.2,0.3-0.2l0.5-0.1c0.1,0,0.3,0,0.3,0.1C159.1,176.5,159.1,176.7,159.1,176.9z M159,182.4c0,0.3,0,0.5,0.1,0.7
		c0.1,0,0.3,0,0.5,0c0.2,0,0.3,0.1,0.3,0.3v0.3c0,0.1,0,0.3-0.2,0.3c-0.2,0.1-0.5,0.2-0.7,0.2c-0.6,0-1-0.4-1-1.1v-4.2
		c0-0.2,0.1-0.3,0.3-0.3h0.5c0.2,0,0.3,0.1,0.3,0.3V182.4z"/>
	<path class="st3" d="M162.9,184.2c-1,0-1.8-0.6-1.8-2v-2.6h-0.7c-0.2,0-0.3-0.1-0.3-0.3v-0.2c0-0.2,0.1-0.3,0.3-0.3l0.7-0.1
		l0.1-1.1c0-0.2,0.1-0.3,0.3-0.3l0.4-0.1c0.2,0,0.3,0.1,0.3,0.2v1.2h1.7c0.2,0,0.3,0.1,0.3,0.3v0.4c0,0.2-0.1,0.3-0.3,0.3h-1.7v2.3
		c0,1,0.4,1.2,1,1.2c0.3,0,0.6-0.1,0.8-0.2c0.2-0.1,0.3,0,0.4,0.1l0.1,0.2c0.1,0.1,0.1,0.3-0.1,0.4
		C164,183.9,163.5,184.2,162.9,184.2z"/>
	<path class="st3" d="M166.7,176.9c0,0.3-0.1,0.5-0.2,0.6c-0.2,0.1-0.3,0.1-0.5,0.1c-0.4,0-0.7-0.3-0.7-0.7c0-0.1,0-0.2,0.1-0.4
		c0-0.1,0.1-0.2,0.3-0.2l0.5-0.1c0.1,0,0.3,0,0.3,0.1C166.7,176.5,166.7,176.7,166.7,176.9z M166.6,182.4c0,0.3,0,0.5,0.1,0.7
		c0.1,0,0.3,0,0.5,0c0.2,0,0.3,0.1,0.3,0.3v0.3c0,0.1,0,0.3-0.2,0.3c-0.2,0.1-0.5,0.2-0.7,0.2c-0.6,0-1-0.4-1-1.1v-4.2
		c0-0.2,0.1-0.3,0.3-0.3h0.5c0.2,0,0.3,0.1,0.3,0.3V182.4z"/>
	<path class="st3" d="M168.2,181.4c0-1.7,0.9-2.9,2.6-2.9c1.3,0,2.1,0.8,2.1,2.1c0,0.2,0,0.5-0.1,0.8c0,0.2-0.2,0.2-0.3,0.2
		l-3.2,0.1c0.1,0.9,0.6,1.6,1.7,1.6c0.5,0,0.9-0.1,1.3-0.3c0.2-0.1,0.3,0,0.4,0.1l0.1,0.2c0.1,0.1,0,0.3-0.1,0.4
		c-0.4,0.3-1.1,0.5-1.8,0.5C169.1,184.2,168.2,183.1,168.2,181.4z M169.3,180.9l2.5-0.1c0-0.1,0-0.2,0-0.3c0-0.6-0.3-1.1-1.1-1.1
		c-0.4,0-0.8,0.1-1,0.3C169.4,180,169.3,180.4,169.3,180.9z"/>
	<path class="st3" d="M177.8,178.8c0.1,0.1,0.2,0.2,0.2,0.4c0,0.2,0,0.6-0.1,0.8c0,0.2-0.1,0.2-0.3,0.2h-0.3c-0.2,0-0.3-0.1-0.3-0.3
		c0-0.2,0-0.3-0.1-0.5c-0.2-0.1-0.5-0.1-0.8-0.1c-0.7,0-1.1,0.2-1.1,0.7c0,1.1,3,0.6,3,2.5c0,1-0.9,1.6-2.1,1.6
		c-0.7,0-1.4-0.2-1.9-0.5c-0.1-0.1-0.2-0.2-0.1-0.4l0.1-0.3c0.1-0.2,0.2-0.2,0.4-0.1c0.5,0.2,1,0.3,1.5,0.3c0.6,0,1-0.2,1-0.6
		c0-1-3-0.6-3-2.5c0-1,0.9-1.7,2.2-1.7C176.9,178.5,177.4,178.6,177.8,178.8z"/>
</g>
<g class="st2">
	<path class="st3" d="M122.4,210.5h-0.6c-0.2,0-0.3-0.1-0.2-0.3l2.7-6.9c0.1-0.2,0.1-0.2,0.3-0.2l0.8-0.1c0.2,0,0.3,0.1,0.3,0.2
		l2.7,7c0.1,0.2,0,0.3-0.2,0.3h-0.6c-0.2,0-0.3-0.1-0.3-0.2l-0.8-2h-3l-0.8,2C122.6,210.4,122.5,210.5,122.4,210.5z M126.1,207.3
		l-1.1-2.9l-1.1,2.9H126.1z"/>
	<path class="st3" d="M133.8,206.3c0,0.2,0,0.3-0.1,0.5c-0.1,0.1-0.2,0.2-0.3,0.2h-0.4c-0.2,0-0.3-0.1-0.3-0.3c0-0.2,0-0.5-0.1-0.7
		c-0.2-0.1-0.5-0.1-0.8-0.1c-0.4,0-0.8,0.1-1.1,0.3c-0.3,0.4-0.4,0.9-0.4,1.6c0,1.1,0.5,1.9,1.7,1.9c0.5,0,0.9-0.1,1.3-0.3
		c0.2-0.1,0.3,0,0.4,0.1l0.1,0.2c0.1,0.1,0,0.3-0.1,0.4c-0.4,0.3-1.1,0.5-1.8,0.5c-1.7,0-2.6-1.1-2.6-2.8c0-1.7,0.9-2.8,2.6-2.8
		C133,204.9,133.8,205.5,133.8,206.3z"/>
	<path class="st3" d="M139.3,210.6c-0.5,0-0.8-0.2-0.9-0.6c-0.4,0.4-1,0.6-1.8,0.6c-1,0-1.7-0.6-1.7-1.5c0-1.1,1.1-1.8,3.1-1.8h0.3
		V207c0-0.9-0.4-1.2-1.2-1.2c-0.3,0-0.6,0-0.8,0.1c0,0.1,0,0.3-0.1,0.5c0,0.2-0.1,0.3-0.3,0.3h-0.4c-0.1,0-0.3,0-0.3-0.2
		c0-0.1-0.1-0.2-0.1-0.3c0-0.8,0.9-1.3,2.1-1.3c1.3,0,2.1,0.6,2.1,1.9v2.1c0,0.3,0,0.5,0.1,0.7c0.1,0,0.3,0,0.5,0
		c0.2,0,0.3,0.1,0.3,0.3v0.3c0,0.1,0,0.3-0.2,0.3C139.8,210.5,139.6,210.6,139.3,210.6z M137,209.6c0.5,0,1-0.2,1.4-0.4V208
		c-0.1,0-0.2,0-0.3,0c-0.7,0-1.5,0.1-1.9,0.4c-0.1,0.2-0.1,0.3-0.1,0.5C136,209.4,136.4,209.6,137,209.6z"/>
	<path class="st3" d="M146,210.6c-0.5,0-0.8-0.2-0.9-0.6c-0.4,0.4-1,0.6-1.7,0.6c-1.4,0-2.4-1-2.4-2.7c0-1.9,1-3,2.6-3
		c0.6,0,1,0.1,1.4,0.4v-2.5c0-0.2,0.1-0.3,0.3-0.3l0.5-0.1c0.2,0,0.3,0.1,0.3,0.3v6.2c0,0.3,0,0.5,0.1,0.7c0.1,0,0.3,0,0.5,0
		c0.2,0,0.3,0.1,0.3,0.3v0.3c0,0.1,0,0.3-0.2,0.3C146.5,210.5,146.3,210.6,146,210.6z M143.7,209.6c0.5,0,0.9-0.1,1.3-0.3v-3.2
		c-0.4-0.1-0.8-0.2-1.3-0.2c-0.4,0-0.9,0.1-1.2,0.3c-0.3,0.4-0.5,0.9-0.5,1.6C142.2,209,142.8,209.6,143.7,209.6z"/>
	<path class="st3" d="M147.8,207.8c0-1.7,0.9-2.9,2.6-2.9c1.3,0,2.1,0.8,2.1,2.1c0,0.2,0,0.5-0.1,0.8c0,0.2-0.2,0.2-0.3,0.2
		l-3.2,0.1c0.1,0.9,0.6,1.6,1.7,1.6c0.5,0,0.9-0.1,1.3-0.3c0.2-0.1,0.3,0,0.4,0.1l0.1,0.2c0.1,0.1,0,0.3-0.1,0.4
		c-0.4,0.3-1.1,0.5-1.8,0.5C148.8,210.6,147.8,209.5,147.8,207.8z M148.9,207.3l2.5-0.1c0-0.1,0-0.2,0-0.3c0-0.6-0.3-1.1-1.1-1.1
		c-0.4,0-0.8,0.1-1,0.3C149.1,206.4,149,206.8,148.9,207.3z"/>
	<path class="st3" d="M155,205.5c0.5-0.4,1.1-0.7,1.8-0.7c0.7,0,1.3,0.2,1.7,0.7c0.5-0.4,1.2-0.7,1.9-0.7c1.2,0,2,0.7,2,1.9v2.1
		c0,0.3,0,0.5,0.1,0.7c0.1,0,0.3,0,0.5,0c0.2,0,0.3,0.1,0.3,0.3v0.3c0,0.1,0,0.3-0.2,0.3c-0.2,0.1-0.5,0.2-0.7,0.2
		c-0.6,0-1-0.4-1-1.1v-2.2c0-1-0.4-1.3-1.2-1.3c-0.5,0-0.8,0.1-1.3,0.3c0,0.2,0,0.4,0,0.6v3.4c0,0.2-0.1,0.3-0.3,0.3H158
		c-0.2,0-0.3-0.1-0.3-0.3v-3.1c0-0.9-0.4-1.3-1.2-1.3c-0.5,0-0.9,0.1-1.4,0.3c0,0.2,0,0.4,0,0.6v3.4c0,0.2-0.1,0.3-0.3,0.3h-0.5
		c-0.2,0-0.3-0.1-0.3-0.3V207c0-0.6-0.1-1-0.3-1.3c-0.1-0.1-0.1-0.3,0-0.4l0.3-0.3c0.1-0.1,0.2-0.1,0.4,0
		C154.7,205.1,154.9,205.3,155,205.5z"/>
	<path class="st3" d="M165.6,203.3c0,0.3-0.1,0.5-0.2,0.6c-0.2,0.1-0.3,0.1-0.5,0.1c-0.4,0-0.7-0.3-0.7-0.7c0-0.1,0-0.2,0.1-0.4
		c0-0.1,0.1-0.2,0.3-0.2l0.5-0.1c0.1,0,0.3,0,0.3,0.1C165.6,202.9,165.6,203.1,165.6,203.3z M165.4,208.8c0,0.3,0,0.5,0.1,0.7
		c0.1,0,0.3,0,0.5,0c0.2,0,0.3,0.1,0.3,0.3v0.3c0,0.1,0,0.3-0.2,0.3c-0.2,0.1-0.5,0.2-0.7,0.2c-0.6,0-1-0.4-1-1.1v-4.2
		c0-0.2,0.1-0.3,0.3-0.3h0.5c0.2,0,0.3,0.1,0.3,0.3V208.8z"/>
	<path class="st3" d="M171.5,210.6c-0.5,0-0.8-0.2-0.9-0.6c-0.4,0.4-1,0.6-1.8,0.6c-1,0-1.7-0.6-1.7-1.5c0-1.1,1.1-1.8,3.1-1.8h0.3
		V207c0-0.9-0.4-1.2-1.2-1.2c-0.3,0-0.6,0-0.8,0.1c0,0.1,0,0.3-0.1,0.5c0,0.2-0.1,0.3-0.3,0.3h-0.4c-0.1,0-0.3,0-0.3-0.2
		c0-0.1-0.1-0.2-0.1-0.3c0-0.8,0.9-1.3,2.1-1.3c1.3,0,2.1,0.6,2.1,1.9v2.1c0,0.3,0,0.5,0.1,0.7c0.1,0,0.3,0,0.5,0
		c0.2,0,0.3,0.1,0.3,0.3v0.3c0,0.1,0,0.3-0.2,0.3C172,210.5,171.8,210.6,171.5,210.6z M169.2,209.6c0.5,0,1-0.2,1.4-0.4V208
		c-0.1,0-0.2,0-0.3,0c-0.7,0-1.5,0.1-1.9,0.4c-0.1,0.2-0.1,0.3-0.1,0.5C168.2,209.4,168.6,209.6,169.2,209.6z"/>
</g>
<g class="st2">
	<path class="st3" d="M127.8,231c0,0.3-0.1,0.5-0.2,0.7c-0.1,0.1-0.2,0.2-0.3,0.2H127c-0.2,0-0.3-0.1-0.3-0.3c0-0.4,0-0.7-0.1-1.1
		c-0.3-0.1-0.7-0.2-1.2-0.2c-0.5,0-1.1,0.1-1.5,0.4c-0.4,0.5-0.7,1.4-0.7,2.4c0,1.6,0.7,2.8,2.4,2.8c0.6,0,1.2-0.2,1.7-0.4
		c0.2-0.1,0.3,0,0.4,0.1l0.2,0.3c0.1,0.1,0.1,0.3-0.1,0.4c-0.5,0.4-1.3,0.6-2.3,0.6c-2.2,0-3.4-1.4-3.4-3.8c0-2.3,1.1-3.9,3.4-3.9
		C126.9,229.3,127.8,229.9,127.8,231z"/>
</g>
<g class="st2">
	<path class="st3" d="M134.1,234.1c0,1.8-0.9,2.9-2.6,2.9c-1.7,0-2.6-1.2-2.6-2.9c0-1.7,0.9-2.8,2.6-2.8
		C133.2,231.3,134.1,232.4,134.1,234.1z M130.4,232.5c-0.3,0.3-0.4,0.9-0.4,1.6c0,1.1,0.4,1.9,1.6,1.9c0.4,0,0.8-0.1,1.1-0.3
		c0.3-0.3,0.4-0.9,0.4-1.6c0-1.1-0.4-1.9-1.6-1.9C131.1,232.3,130.7,232.3,130.4,232.5z"/>
	<path class="st3" d="M136.5,231.9c0.5-0.4,1.1-0.7,1.8-0.7c0.7,0,1.3,0.2,1.7,0.7c0.5-0.4,1.2-0.7,1.9-0.7c1.2,0,2,0.7,2,1.9v2.1
		c0,0.3,0,0.5,0.1,0.7c0.1,0,0.3,0,0.5,0c0.2,0,0.3,0.1,0.3,0.3v0.3c0,0.1,0,0.3-0.2,0.3c-0.2,0.1-0.5,0.2-0.7,0.2
		c-0.6,0-1-0.4-1-1.1v-2.2c0-1-0.4-1.3-1.2-1.3c-0.5,0-0.8,0.1-1.3,0.3c0,0.2,0,0.4,0,0.6v3.4c0,0.2-0.1,0.3-0.3,0.3h-0.5
		c-0.2,0-0.3-0.1-0.3-0.3v-3.1c0-0.9-0.4-1.3-1.2-1.3c-0.5,0-0.9,0.1-1.4,0.3c0,0.2,0,0.4,0,0.6v3.4c0,0.2-0.1,0.3-0.3,0.3h-0.5
		c-0.2,0-0.3-0.1-0.3-0.3v-3.2c0-0.6-0.1-1-0.3-1.3c-0.1-0.1-0.1-0.3,0-0.4l0.3-0.3c0.1-0.1,0.2-0.1,0.4,0
		C136.3,231.5,136.4,231.7,136.5,231.9z"/>
	<path class="st3" d="M146.7,231.9c0.5-0.4,1.1-0.7,1.8-0.7c0.7,0,1.3,0.2,1.7,0.7c0.5-0.4,1.2-0.7,1.9-0.7c1.2,0,2,0.7,2,1.9v2.1
		c0,0.3,0,0.5,0.1,0.7c0.1,0,0.3,0,0.5,0c0.2,0,0.3,0.1,0.3,0.3v0.3c0,0.1,0,0.3-0.2,0.3c-0.2,0.1-0.5,0.2-0.7,0.2
		c-0.6,0-1-0.4-1-1.1v-2.2c0-1-0.4-1.3-1.2-1.3c-0.5,0-0.8,0.1-1.3,0.3c0,0.2,0,0.4,0,0.6v3.4c0,0.2-0.1,0.3-0.3,0.3h-0.5
		c-0.2,0-0.3-0.1-0.3-0.3v-3.1c0-0.9-0.4-1.3-1.2-1.3c-0.5,0-0.9,0.1-1.4,0.3c0,0.2,0,0.4,0,0.6v3.4c0,0.2-0.1,0.3-0.3,0.3h-0.5
		c-0.2,0-0.3-0.1-0.3-0.3v-3.2c0-0.6-0.1-1-0.3-1.3c-0.1-0.1-0.1-0.3,0-0.4l0.3-0.3c0.1-0.1,0.2-0.1,0.4,0
		C146.5,231.5,146.6,231.7,146.7,231.9z"/>
	<path class="st3" d="M157.1,234.6c0,1,0.4,1.3,1.3,1.3c0.5,0,1-0.1,1.4-0.3v-4c0-0.2,0.1-0.3,0.3-0.3h0.5c0.2,0,0.3,0.1,0.3,0.3
		v3.6c0,0.3,0,0.5,0.1,0.7c0.1,0,0.3,0,0.5,0c0.2,0,0.3,0.1,0.3,0.3v0.3c0,0.1,0,0.3-0.2,0.3c-0.2,0.1-0.4,0.2-0.7,0.2
		c-0.5,0-0.8-0.2-0.9-0.6c-0.5,0.4-1.1,0.6-1.8,0.6c-1.2,0-2-0.7-2-1.9v-3.4c0-0.2,0.1-0.3,0.3-0.3h0.5c0.2,0,0.3,0.1,0.3,0.3V234.6
		z"/>
	<path class="st3" d="M163.6,231.9c0.5-0.4,1.2-0.7,1.9-0.7c1.2,0,2,0.7,2,1.9v2.1c0,0.3,0,0.5,0.1,0.7c0.1,0,0.3,0,0.5,0
		c0.2,0,0.3,0.1,0.3,0.3v0.3c0,0.1,0,0.3-0.2,0.3c-0.2,0.1-0.4,0.2-0.7,0.2c-0.6,0-1-0.4-1-1.1v-2.2c0-1-0.4-1.4-1.3-1.4
		c-0.4,0-0.9,0.1-1.4,0.3c0,0.2,0,0.4,0,0.6v3.4c0,0.2-0.1,0.3-0.3,0.3H163c-0.2,0-0.3-0.1-0.3-0.3v-3.2c0-0.6-0.1-1-0.3-1.3
		c-0.1-0.1-0.1-0.3,0-0.4l0.3-0.3c0.1-0.1,0.2-0.1,0.4,0C163.4,231.5,163.5,231.7,163.6,231.9z"/>
	<path class="st3" d="M170.7,229.7c0,0.3-0.1,0.5-0.2,0.6c-0.2,0.1-0.3,0.1-0.5,0.1c-0.4,0-0.7-0.3-0.7-0.7c0-0.1,0-0.2,0.1-0.4
		c0-0.1,0.1-0.2,0.3-0.2l0.5-0.1c0.1,0,0.3,0,0.3,0.1C170.6,229.3,170.7,229.5,170.7,229.7z M170.5,235.2c0,0.3,0,0.5,0.1,0.7
		c0.1,0,0.3,0,0.5,0c0.2,0,0.3,0.1,0.3,0.3v0.3c0,0.1,0,0.3-0.2,0.3c-0.2,0.1-0.5,0.2-0.7,0.2c-0.6,0-1-0.4-1-1.1v-4.2
		c0-0.2,0.1-0.3,0.3-0.3h0.5c0.2,0,0.3,0.1,0.3,0.3V235.2z"/>
	<path class="st3" d="M174.5,237c-1,0-1.8-0.6-1.8-2v-2.6H172c-0.2,0-0.3-0.1-0.3-0.3v-0.2c0-0.2,0.1-0.3,0.3-0.3l0.7-0.1l0.1-1.1
		c0-0.2,0.1-0.3,0.3-0.3l0.4-0.1c0.2,0,0.3,0.1,0.3,0.2v1.2h1.7c0.2,0,0.3,0.1,0.3,0.3v0.4c0,0.2-0.1,0.3-0.3,0.3h-1.7v2.3
		c0,1,0.4,1.2,1,1.2c0.3,0,0.6-0.1,0.8-0.2c0.2-0.1,0.3,0,0.4,0.1l0.1,0.2c0.1,0.1,0.1,0.3-0.1,0.4C175.6,236.7,175.1,237,174.5,237
		z"/>
	<path class="st3" d="M178.3,229.7c0,0.3-0.1,0.5-0.2,0.6c-0.2,0.1-0.3,0.1-0.5,0.1c-0.4,0-0.7-0.3-0.7-0.7c0-0.1,0-0.2,0.1-0.4
		c0-0.1,0.1-0.2,0.3-0.2l0.5-0.1c0.1,0,0.3,0,0.3,0.1C178.2,229.3,178.3,229.5,178.3,229.7z M178.1,235.2c0,0.3,0,0.5,0.1,0.7
		c0.1,0,0.3,0,0.5,0c0.2,0,0.3,0.1,0.3,0.3v0.3c0,0.1,0,0.3-0.2,0.3c-0.2,0.1-0.5,0.2-0.7,0.2c-0.6,0-1-0.4-1-1.1v-4.2
		c0-0.2,0.1-0.3,0.3-0.3h0.5c0.2,0,0.3,0.1,0.3,0.3V235.2z"/>
	<path class="st3" d="M179.7,234.2c0-1.7,0.9-2.9,2.6-2.9c1.3,0,2.1,0.8,2.1,2.1c0,0.2,0,0.5-0.1,0.8c0,0.2-0.2,0.2-0.3,0.2
		l-3.2,0.1c0.1,0.9,0.5,1.6,1.7,1.6c0.5,0,0.9-0.1,1.3-0.3c0.2-0.1,0.3,0,0.4,0.1l0.1,0.2c0.1,0.1,0,0.3-0.1,0.4
		c-0.4,0.3-1.1,0.5-1.8,0.5C180.6,237,179.7,235.9,179.7,234.2z M180.8,233.7l2.5-0.1c0-0.1,0-0.2,0-0.3c0-0.6-0.3-1.1-1.1-1.1
		c-0.4,0-0.8,0.1-1,0.3C181,232.8,180.9,233.2,180.8,233.7z"/>
	<path class="st3" d="M189.3,231.6c0.1,0.1,0.2,0.2,0.2,0.4c0,0.2,0,0.6-0.1,0.8c0,0.2-0.1,0.2-0.3,0.2h-0.3c-0.2,0-0.3-0.1-0.3-0.3
		c0-0.2,0-0.3-0.1-0.5c-0.2-0.1-0.5-0.1-0.8-0.1c-0.7,0-1.1,0.2-1.1,0.7c0,1.1,3,0.6,3,2.5c0,1-0.9,1.6-2.1,1.6
		c-0.7,0-1.4-0.2-1.9-0.5c-0.1-0.1-0.2-0.2-0.1-0.4l0.1-0.3c0.1-0.2,0.2-0.2,0.4-0.1c0.5,0.2,1,0.3,1.5,0.3c0.6,0,1-0.2,1-0.6
		c0-1-3-0.6-3-2.5c0-1,0.9-1.7,2.2-1.7C188.4,231.3,189,231.4,189.3,231.6z"/>
</g>
<polyline class="st4" points="142.2,0.3 146.9,4.7 142.2,9.1 "/>
<polyline class="st4" points="39.6,47.4 46,47.2 45.8,53.6 "/>
<polyline class="st4" points="0.3,153.3 4.7,148.6 9.1,153.3 "/>
<polyline class="st4" points="47.4,255.9 47.2,249.5 53.6,249.7 "/>
<polyline class="st4" points="153.3,295.2 148.6,290.8 153.3,286.4 "/>
<polyline class="st4" points="255.9,248.1 249.5,248.3 249.7,241.9 "/>
<polyline class="st4" points="295.2,142.2 290.8,146.9 286.4,142.2 "/>
<polyline class="st4" points="248.1,39.6 248.3,46 241.9,45.8 "/>
<line class="st5" x1="82.4" y1="61.6" x2="112.2" y2="61.6"/>
<polyline class="st5" points="108.4,58.1 112.2,61.6 108.4,65 "/>
<line class="st5" x1="82.4" y1="88.2" x2="112.2" y2="88.2"/>
<polyline class="st5" points="108.4,84.7 112.2,88.2 108.4,91.7 "/>
<line class="st5" x1="82.4" y1="113.9" x2="112.2" y2="113.9"/>
<polyline class="st5" points="108.4,110.4 112.2,113.9 108.4,117.3 "/>
<line class="st5" x1="82.4" y1="141.1" x2="112.2" y2="141.1"/>
<polyline class="st5" points="108.4,137.6 112.2,141.1 108.4,144.6 "/>
<line class="st5" x1="82.4" y1="180.1" x2="112.2" y2="180.1"/>
<polyline class="st5" points="108.4,176.6 112.2,180.1 108.4,183.5 "/>
<line class="st5" x1="82.4" y1="206.1" x2="112.2" y2="206.1"/>
<polyline class="st5" points="108.4,202.6 112.2,206.1 108.4,209.6 "/>
<line class="st5" x1="82.4" y1="233.3" x2="112.2" y2="233.3"/>
<polyline class="st5" points="108.4,229.8 112.2,233.3 108.4,236.8 "/>
</svg>
