<svg xmlns="http://www.w3.org/2000/svg" viewBox="0 0 295.51 295.51"><defs><style>.cls-1{fill:#dbdbdb;}.cls-13,.cls-14,.cls-2{fill:none;stroke-miterlimit:10;}.cls-13,.cls-2{stroke:#00acd8;}.cls-2{stroke-width:0.45px;}.cls-12,.cls-3,.cls-5,.cls-7{isolation:isolate;font-size:11px;fill:#002554;font-family:Rotoplas-Regular, Rotoplas;}.cls-3{letter-spacing:-0.02em;}.cls-4,.cls-5{letter-spacing:-0.01em;}.cls-6{letter-spacing:-0.04em;}.cls-8{letter-spacing:-0.03em;}.cls-9{letter-spacing:0em;}.cls-10{letter-spacing:-0.02em;}.cls-11,.cls-12{letter-spacing:-0.02em;}.cls-13{stroke-width:0.9px;}.cls-14{stroke:#397cc9;stroke-width:0.75px;}</style></defs><title>impacto-360-eng</title><g id="Capa_2" data-name="Capa 2"><g id="Capa_1-2" data-name="Capa 1"><circle class="cls-1" cx="147.75" cy="147.75" r="127"/><circle class="cls-2" cx="147.75" cy="147.75" r="143"/><text class="cls-3" transform="translate(121.32 65.26)">E<tspan class="cls-4" x="6.5" y="0">mployees</tspan></text><text class="cls-5" transform="translate(121.32 91.66)">Clients and use<tspan class="cls-6" x="78.42" y="0">r</tspan><tspan x="82.37" y="0">s</tspan></text><text class="cls-7" transform="translate(121.32 118.06)">Supplie<tspan class="cls-8" x="38.69" y="0">r</tspan><tspan class="cls-9" x="42.75" y="0">s</tspan></text><text class="cls-5" transform="translate(121.32 144.46)">Inves<tspan class="cls-10" x="26.77" y="0">t</tspan><tspan x="31.29" y="0">o</tspan><tspan class="cls-6" x="37.61" y="0">r</tspan><tspan x="41.56" y="0">s and financial</tspan><tspan x="0" y="13.2">community</tspan></text><text class="cls-5" transform="translate(121.32 184.06)">Autho<tspan class="cls-11" x="31.48" y="0">r</tspan><tspan x="35.65" y="0">ities</tspan></text><text class="cls-7" transform="translate(121.32 210.46)">Academia</text><text class="cls-12" transform="translate(121.32 236.86)">C<tspan class="cls-4" x="6.98" y="0">ommunities</tspan></text><polyline class="cls-13" points="142.23 0.33 146.95 4.72 142.23 9.1"/><polyline class="cls-13" points="39.61 47.41 46.05 47.18 45.81 53.62"/><polyline class="cls-13" points="0.33 153.27 4.72 148.55 9.1 153.27"/><polyline class="cls-13" points="47.41 255.9 47.18 249.46 53.62 249.69"/><polyline class="cls-13" points="153.27 295.18 148.55 290.79 153.27 286.4"/><polyline class="cls-13" points="255.9 248.09 249.46 248.33 249.69 241.89"/><polyline class="cls-13" points="295.18 142.23 290.79 146.95 286.4 142.23"/><polyline class="cls-13" points="248.09 39.61 248.33 46.05 241.89 45.81"/><line class="cls-14" x1="82.37" y1="61.56" x2="112.18" y2="61.56"/><polyline class="cls-14" points="108.44 58.09 112.18 61.56 108.44 65.03"/><line class="cls-14" x1="82.37" y1="88.17" x2="112.18" y2="88.17"/><polyline class="cls-14" points="108.44 84.7 112.18 88.17 108.44 91.65"/><line class="cls-14" x1="82.37" y1="113.86" x2="112.18" y2="113.86"/><polyline class="cls-14" points="108.44 110.39 112.18 113.86 108.44 117.33"/><line class="cls-14" x1="82.37" y1="141.12" x2="112.18" y2="141.12"/><polyline class="cls-14" points="108.44 137.65 112.18 141.12 108.44 144.59"/><line class="cls-14" x1="82.37" y1="180.05" x2="112.18" y2="180.05"/><polyline class="cls-14" points="108.44 176.57 112.18 180.05 108.44 183.52"/><line class="cls-14" x1="82.37" y1="206.11" x2="112.18" y2="206.11"/><polyline class="cls-14" points="108.44 202.64 112.18 206.11 108.44 209.58"/><line class="cls-14" x1="82.37" y1="233.3" x2="112.18" y2="233.3"/><polyline class="cls-14" points="108.44 229.82 112.18 233.3 108.44 236.77"/></g></g></svg>