<?xml version="1.0" encoding="utf-8"?>
<!-- Generator: Adobe Illustrator 24.0.2, SVG Export Plug-In . SVG Version: 6.00 Build 0)  -->
<svg version="1.1" id="Capa_1" xmlns="http://www.w3.org/2000/svg" xmlns:xlink="http://www.w3.org/1999/xlink" x="0px" y="0px"
	 viewBox="0 0 65 55" style="enable-background:new 0 0 65 55;" xml:space="preserve">
<style type="text/css">
	.st0{fill:#009CDE;}
	.st1{fill:#069AD7;}
</style>
<g>
	<path class="st1" d="M41.4,22.4c-0.1-0.2-0.3-0.4-0.3-0.5c-3.3-5.7-7.6-11.3-7.7-11.4c-0.2-0.3-0.6-0.4-0.9-0.4
		c-0.4,0-0.7,0.2-0.9,0.5c0,0.1-3.7,5.5-6.5,9.7c-0.3,0.5-0.2,1.2,0.3,1.6c0.5,0.3,1.2,0.2,1.6-0.3c1.9-3,4.3-6.5,5.6-8.3
		c1.4,1.9,4.2,5.9,6.6,9.9c0.1,0.2,0.2,0.4,0.4,0.6c0.9,1.5,3.1,4.9,3.4,8.8c0.2,2.5-0.8,5-2.6,6.9c-2,2.1-4.9,3.3-7.8,3.3
		c-5.7,0-10.4-4.6-10.4-10.3c0-0.9,0.3-2.5,1-3.9c0.3-0.7,0.9-0.9,1.2-1c0.5-0.1,1,0,1.4,0.3c0.4,0.3,0.5,0.7,0.5,1.2
		c-0.2,1.7-0.3,7.4,4.8,8.9c0.6,0.2,1.2-0.2,1.4-0.8c0.2-0.6-0.2-1.2-0.8-1.4c-3.3-1-3.3-4.9-3.2-6.5c0.1-1.2-0.4-2.4-1.3-3.2
		c-0.9-0.7-2.1-1-3.3-0.8c-1.2,0.3-2.2,1-2.8,2.1c-0.8,1.5-1.2,3.4-1.2,5c0,6.9,5.7,12.6,12.6,12.6c3.6,0,7-1.5,9.4-4.1
		c2.2-2.4,3.4-5.4,3.2-8.6C44.8,27.8,42.4,24,41.4,22.4z"/>
	<path class="st1" d="M50.8,9.3c-4.9-4.9-11.4-7.5-18.3-7.5S19.1,4.4,14.2,9.3c-4.9,4.9-7.6,11.3-7.6,18.2s2.7,13.4,7.6,18.2
		c4.9,4.9,11.4,7.5,18.3,7.5s13.4-2.7,18.3-7.5c4.9-4.9,7.6-11.3,7.6-18.2S55.7,14.1,50.8,9.3z M49.2,44.1
		C44.8,48.6,38.8,51,32.5,51c-6.3,0-12.3-2.4-16.7-6.9c-4.5-4.4-6.9-10.4-6.9-16.6s2.5-12.2,6.9-16.6C20.2,6.4,26.2,4,32.5,4
		c6.3,0,12.3,2.4,16.7,6.9c4.5,4.4,6.9,10.4,6.9,16.6S53.7,39.7,49.2,44.1z"/>
</g>
</svg>
