<?xml version="1.0" encoding="utf-8"?>
<!-- Generator: Adobe Illustrator 24.0.2, SVG Export Plug-In . SVG Version: 6.00 Build 0)  -->
<svg version="1.1" id="Capa_1" xmlns="http://www.w3.org/2000/svg" xmlns:xlink="http://www.w3.org/1999/xlink" x="0px" y="0px"
	 viewBox="0 0 65 55" style="enable-background:new 0 0 65 55;" xml:space="preserve">
<style type="text/css">
	.st0{fill:#009CDE;}
	.st1{fill:#069AD7;}
</style>
<g>
	<path class="st1" d="M46.9,15.5H17.2c-0.6,0-1.1,0.5-1.1,1.1c0,0.6,0.5,1.1,1.1,1.1h29.7c0.6,0,1.1-0.5,1.1-1.1
		C48,16,47.5,15.5,46.9,15.5z"/>
	<path class="st1" d="M48,23c0-0.6-0.5-1.1-1.1-1.1H17.2c-0.6,0-1.1,0.5-1.1,1.1s0.5,1.1,1.1,1.1h29.7C47.5,24.2,48,23.7,48,23z"/>
	<path class="st1" d="M17.2,28.3c-0.6,0-1.1,0.5-1.1,1.1c0,0.6,0.5,1.1,1.1,1.1h20.7c0.6,0,1.1-0.5,1.1-1.1c0-0.6-0.5-1.1-1.1-1.1
		H17.2z"/>
	<path class="st1" d="M31.3,51.6H11.2V13.5h9.5c0.6,0,1.1-0.5,1.1-1.1V2.9h29.6V29c0,0.6,0.5,1.1,1.1,1.1c0.6,0,1.1-0.5,1.1-1.1V2.7
		c0-1.2-0.9-2.1-2.1-2.1H20.7c0,0-0.1,0-0.1,0c0,0,0,0,0,0c0,0,0,0,0,0c0,0,0,0-0.1,0c0,0,0,0,0,0c0,0,0,0-0.1,0c0,0,0,0-0.1,0
		c0,0,0,0,0,0c0,0,0,0-0.1,0c0,0,0,0-0.1,0c0,0,0,0,0,0c0,0,0,0,0,0c0,0,0,0-0.1,0c0,0,0,0,0,0c0,0,0,0,0,0c0,0,0,0,0,0c0,0,0,0,0,0
		c0,0,0,0,0,0c0,0,0,0,0,0c0,0,0,0,0,0c0,0,0,0-0.1,0.1c0,0,0,0,0,0L9.3,11.6c0,0,0,0,0,0c0,0,0,0,0,0c0,0,0,0,0,0c0,0,0,0,0,0
		c0,0,0,0,0,0c0,0,0,0,0,0c0,0,0,0,0,0c0,0,0,0,0,0c0,0,0,0,0,0c0,0,0,0,0,0c0,0,0,0,0,0c0,0,0,0,0,0c0,0,0,0,0,0c0,0,0,0,0,0.1
		c0,0,0,0,0,0c0,0,0,0,0,0c0,0,0,0,0,0.1c0,0,0,0,0,0c0,0,0,0,0,0.1c0,0,0,0,0,0c0,0,0,0,0,0c0,0,0,0.1,0,0.1c0,0,0,0,0,0v39.4
		c0,1.2,0.9,2.1,2.1,2.1h20.3c0.6,0,1.1-0.5,1.1-1.1C32.5,52.1,31.9,51.6,31.3,51.6z M12.8,11.2l6.8-6.8v6.8H12.8z"/>
	<path class="st1" d="M44.6,31.6c-6.3,0-11.5,5.1-11.5,11.4c0,6.3,5.1,11.4,11.5,11.4S56,49.3,56,43C56,36.7,50.9,31.6,44.6,31.6z
		 M44.6,52.1c-5.1,0-9.2-4.1-9.2-9.2c0-5.1,4.1-9.2,9.2-9.2s9.2,4.1,9.2,9.2C53.8,48,49.7,52.1,44.6,52.1z"/>
	<path class="st1" d="M51.8,38.5c-0.4-0.4-1.2-0.4-1.6,0L42,46.6l-3.4-3.4c-0.4-0.4-1.2-0.4-1.6,0c-0.4,0.4-0.4,1.2,0,1.6l4.2,4.2
		c0.2,0.2,0.5,0.3,0.8,0.3c0.3,0,0.6-0.1,0.8-0.3l9-9C52.2,39.6,52.2,38.9,51.8,38.5z"/>
</g>
</svg>
