<?xml version="1.0" encoding="utf-8"?>
<!-- Generator: Adobe Illustrator 24.0.2, SVG Export Plug-In . SVG Version: 6.00 Build 0)  -->
<svg version="1.1" id="Capa_1" xmlns="http://www.w3.org/2000/svg" xmlns:xlink="http://www.w3.org/1999/xlink" x="0px" y="0px"
	 viewBox="0 0 65 55" style="enable-background:new 0 0 65 55;" xml:space="preserve">
<style type="text/css">
	.st0{fill:#009CDE;}
	.st1{fill:#069AD7;}
</style>
<g>
	<path class="st1" d="M53,14.5c0-0.1-0.1-0.1-0.2-0.2c-3.5-3-8.8-7.5-9.5-8.2c0-0.1,0-0.3,0-0.4l0-0.2c0-0.4-0.1-2.7-0.1-3.1
		c0,0,0-0.1,0-0.1c0-0.3-0.1-1.1-1-1.4c-0.8-0.3-3.8-0.6-6.2-0.8c-0.4,0-0.7,0.3-0.7,0.6c0,0.4,0.3,0.7,0.6,0.7
		c2.7,0.2,5.3,0.5,5.9,0.7c0,0,0,0,0,0c0,0,0,0.2,0,0.2c0,0,0,0.1,0,0.1c0,0.3,0.1,2.4,0.1,2.9l0,0.2c0,0.4,0,0.9,0.3,1.3
		c0.1,0.1,0.2,0.3,9.6,8.3c0.1,0.2,0.2,0.5,0.2,0.6V51c0,0.5-0.4,1-0.9,1.2c-2,0.6-7.1,1.5-18.7,1.5c-11.6,0-16.6-0.9-18.6-1.4
		c-0.5-0.1-0.9-0.6-0.9-1.2c0-10.5-0.1-34.8-0.1-35.6c0,0,0,0,0,0c0.9-0.1,4.1-0.7,5.3-0.8c0.4,0,0.6-0.4,0.6-0.8
		c0-0.4-0.4-0.6-0.8-0.6c-0.7,0.1-2,0.3-3.2,0.5C22.5,7.2,22.7,7,22.7,7C23,6.6,23,6.1,23,5.7l0-0.2c0-0.5,0.1-2.6,0.1-2.9
		c0-0.1,0-0.1,0-0.2c0-0.1,0-0.1,0-0.2c0,0,0,0,0,0c0.9-0.3,6.5-0.9,9.3-0.9c0.4,0,0.7-0.3,0.7-0.7c0-0.4-0.3-0.7-0.7-0.7
		c0,0,0,0,0,0C30,0,24,0.5,22.7,1c-0.8,0.3-0.9,1-1,1.3c0,0,0,0.1,0,0.1c-0.1,0.4-0.2,2.7-0.2,3.1l0,0.2c0,0.2,0,0.4,0,0.4
		c-0.7,0.6-5.9,5.1-9.5,8.1c-0.1,0.1-0.6,0.5-0.6,1.2c0,0.4,0,25,0.1,35.6c0,1.2,0.8,2.2,1.9,2.5c2.1,0.5,7.3,1.4,19,1.4
		c11.8,0,17-1,19.1-1.6c1.1-0.3,1.9-1.3,1.9-2.5V15.9C53.5,15.3,53.1,14.7,53,14.5z"/>
	<path class="st1" d="M40.1,4.8C31.6,4.3,24.4,5,24.4,5c-0.4,0-0.7,0.4-0.6,0.8c0,0.4,0.3,0.6,0.7,0.6c0,0,0,0,0.1,0
		c0.1,0,7.2-0.7,15.6-0.2c0.4,0,0.7-0.3,0.7-0.6C40.8,5.1,40.5,4.8,40.1,4.8z"/>
	<path class="st1" d="M18.4,16.5V49c0,0.4,0.3,0.7,0.7,0.7s0.7-0.3,0.7-0.7V16.5c0-0.4-0.3-0.7-0.7-0.7S18.4,16.1,18.4,16.5z"/>
	<path class="st1" d="M47.3,18.9v20.8c0,0.4,0.3,0.7,0.7,0.7s0.7-0.3,0.7-0.7V18.9c0-0.4-0.3-0.7-0.7-0.7S47.3,18.5,47.3,18.9z"/>
	<path class="st1" d="M47.3,13.2c-9.7-0.7-19.8-0.4-25-0.1c-0.4,0-0.7,0.3-0.7,0.7c0,0.4,0.3,0.7,0.7,0.7c5.1-0.3,15.2-0.6,24.8,0.1
		c0,0,0,0,0.1,0c0.4,0,0.7-0.3,0.7-0.6C47.9,13.5,47.6,13.2,47.3,13.2z"/>
</g>
</svg>
