<?xml version="1.0" encoding="utf-8"?>
<!-- Generator: Adobe Illustrator 24.0.2, SVG Export Plug-In . SVG Version: 6.00 Build 0)  -->
<svg version="1.1" id="Capa_1" xmlns="http://www.w3.org/2000/svg" xmlns:xlink="http://www.w3.org/1999/xlink" x="0px" y="0px"
	 viewBox="0 0 65 55" style="enable-background:new 0 0 65 55;" xml:space="preserve">
<style type="text/css">
	.st0{fill:#009CDE;}
	.st1{fill:#069AD7;}
</style>
<g>
	<path class="st1" d="M32.5,13.6c1.7,0,3.2-1.4,3.2-3.2s-1.4-3.2-3.2-3.2c-1.7,0-3.2,1.4-3.2,3.2S30.8,13.6,32.5,13.6z M32.5,8.6
		c1,0,1.8,0.8,1.8,1.8s-0.8,1.8-1.8,1.8c-1,0-1.8-0.8-1.8-1.8S31.5,8.6,32.5,8.6z"/>
	<path class="st1" d="M27.7,15.6l1.8,2.1c0,0,0,0,0.1,0.1c0.3,0.2,0.6,0.4,0.9,0.4v1.3c0,0.6,0.6,1.1,1.3,1.1h1.4
		c0.7,0,1.3-0.5,1.3-1.1v-1.3c0.3,0,0.5-0.2,0.8-0.3c0,0,0.1-0.1,0.1-0.1l1.8-2.1c1.3-0.1,2.2-1.2,2.2-2.5v-8c0-1.4-1.1-2.5-2.5-2.5
		h-8.9c-1.3,0-2.4,1.1-2.4,2.4v8C25.6,14.4,26.6,15.4,27.7,15.6z M31.9,19.2v-1.1h1.2v1.1L31.9,19.2z M34.4,16.7c0,0-0.1,0-0.2,0
		h-3.5c-0.1,0-0.1,0-0.2-0.1l-0.9-1.1h5.7L34.4,16.7z M27,5.1C27,4.5,27.5,4,28.1,4h8.9C37.5,4,38,4.5,38,5.1v8
		c0,0.6-0.5,1.1-1.1,1.1h-0.1c0,0,0,0,0,0h-8.6c-0.1,0-0.1,0-0.2,0c-0.6,0-1.1-0.5-1.1-1.1V5.1z"/>
	<path class="st1" d="M38.6,0H26.4c-1.7,0-3,1.4-3,3v42.1v1.5v3c0,1.6,1.3,2.9,2.8,3V53c0,1.1,0.9,2,2,2h8.6c1.1,0,2-0.9,2-2v-0.3
		c1.6-0.1,2.8-1.4,2.8-3v-3v-1.5V3C41.6,1.4,40.3,0,38.6,0z M26.4,1.4h12.2c0.9,0,1.7,0.7,1.7,1.7v41H38c-0.4,0-0.7,0.3-0.7,0.7
		c0,0.4,0.3,0.7,0.7,0.7h2.3v1.1C40,46.8,38.7,48,32.5,48c-6.2,0-7.5-1.2-7.7-1.5v-1.1h10.9c0.4,0,0.7-0.3,0.7-0.7
		c0-0.4-0.3-0.7-0.7-0.7H24.8V3C24.8,2.1,25.5,1.4,26.4,1.4z M38.6,51.3h-2.5c-0.4,0-0.7,0.3-0.7,0.7c0,0.4,0.3,0.7,0.7,0.7h1.2V53
		c0,0.3-0.3,0.6-0.6,0.6h-8.6c-0.3,0-0.6-0.3-0.6-0.6v-0.3h6.9c0.4,0,0.7-0.3,0.7-0.7c0-0.4-0.3-0.7-0.7-0.7h-8.1
		c-0.9,0-1.6-0.7-1.6-1.6v-1.5c1.2,0.6,3.5,1.2,7.7,1.2c4.3,0,6.5-0.6,7.7-1.2v1.5C40.2,50.6,39.5,51.3,38.6,51.3z"/>
</g>
</svg>
